<svg width="1168" height="1035" viewBox="0 0 1168 1035" fill="none" xmlns="http://www.w3.org/2000/svg">
<g opacity="0.1">
<g opacity="0.3">
<path d="M1017.81 1087.02C973.806 1079.03 968.555 1049.15 961.887 1011.29C954.386 969.008 945.135 916.408 877.792 874.462C844.037 853.489 811.699 840.339 778.861 834.264C749.524 828.854 720.353 829.187 689.848 835.346C633.174 846.831 579.666 877.458 527.825 907.004C479.318 934.718 429.145 963.431 375.137 977.58C346.133 985.237 318.462 988.066 290.541 986.402C259.204 984.488 228.366 976.914 196.361 963.182C140.437 939.212 84.8453 930.89 31.171 938.38C21.2529 939.795 11.4181 941.709 1.66675 944.206V946.786C11.5848 944.289 21.5029 942.292 31.5877 940.877C84.8453 933.387 139.937 941.709 195.444 965.429C234.867 982.324 271.372 989.315 305.794 989.315C388.889 989.315 459.816 948.783 529.075 909.251C583.083 878.374 634.007 849.245 690.349 837.843C720.519 831.684 749.357 831.351 778.361 836.761C810.949 842.753 843.037 855.819 876.458 876.626C906.046 895.019 942.885 917.906 959.47 1011.7C962.887 1031.26 965.888 1048.16 973.806 1061.72C982.557 1076.79 996.476 1085.61 1017.4 1089.44C1079.32 1100.76 1116.16 1118.65 1133.25 1145.78C1137.33 1152.19 1140.33 1159.18 1142.33 1166.59H1144.91C1142.83 1158.68 1139.75 1151.36 1135.33 1144.45C1117.83 1116.73 1080.49 1098.51 1017.81 1087.02Z" fill="white"/>
<path d="M969.555 1114.57C917.131 1106.75 912.213 1091.02 901.545 1056.73C892.211 1026.85 878.125 981.575 823.034 915.909C748.94 827.522 670.346 882.785 579.333 946.786C487.069 1011.7 382.471 1085.19 254.786 1032.26C205.863 1011.95 156.522 1001.97 108.015 1002.38C71.9267 1002.71 36.1716 1008.87 1.75 1020.69V1023.35C36.1716 1011.45 71.8434 1005.29 108.015 1004.96C156.189 1004.46 205.196 1014.53 253.786 1034.67C311.294 1058.56 369.386 1058.98 431.228 1036.09C485.319 1016.03 533.826 981.908 580.749 948.95C625.756 917.324 668.262 887.446 708.018 876.793C751.941 864.974 787.862 877.958 821.117 917.657C875.875 982.99 889.877 1027.93 899.128 1057.64C909.796 1091.93 915.214 1109.16 969.222 1117.23C1000.81 1121.98 1020.56 1133.63 1027.98 1151.86C1029.81 1156.43 1030.9 1161.43 1031.31 1166.84H1033.81C1033.48 1161.09 1032.31 1155.77 1030.31 1150.94C1022.48 1131.63 1002.06 1119.48 969.555 1114.57Z" fill="white"/>
<path d="M710.018 1001.63C686.848 986.235 655.76 986.735 617.671 1003.38C587.417 1016.53 552.662 1039.83 514.323 1072.46C475.151 1105.92 440.146 1142.53 418.31 1166.59H421.643C443.48 1142.53 477.651 1106.91 515.907 1074.29C554.079 1041.75 588.584 1018.61 618.588 1005.54C655.844 989.315 686.098 988.649 708.518 1003.63C760.609 1038.34 788.279 1096.93 812.699 1148.61C815.616 1154.69 818.367 1160.68 821.201 1166.5H823.951C820.95 1160.35 817.95 1154.02 814.95 1147.53C790.529 1095.6 762.692 1036.67 710.018 1001.63Z" fill="white"/>
<path d="M104.181 664.815C141.853 690.115 166.44 726.402 188.027 758.444C212.53 794.731 233.783 826.108 266.955 831.184C270.038 831.684 273.206 831.85 276.373 831.85C301.96 831.85 332.381 817.119 370.97 786.076C399.89 762.772 423.977 741.633 445.23 722.907C490.07 683.374 522.491 654.827 558.33 645.589C594.918 636.101 635.091 646.089 696.933 679.962C747.44 707.676 807.699 726.735 862.123 732.228C887.46 734.808 910.463 734.309 928.716 730.647C947.969 726.818 961.471 719.911 968.722 710.007C978.64 696.441 981.057 671.223 935.967 628.029C882.043 576.345 820.7 570.103 755.775 563.528C712.768 559.2 668.262 554.623 623.339 536.563C572.498 516.172 528.409 480.718 488.486 428.368C458.982 389.668 424.561 371.358 388.805 375.436C364.469 378.183 340.549 390.999 317.712 413.387C294.792 436.025 274.122 467.235 256.453 506.185C243.285 535.064 228.783 549.879 211.863 551.377C175.275 554.623 132.936 493.202 92.0963 433.778C71.6768 404.066 50.5904 373.439 30.5042 351.467C20.086 340.065 10.5847 331.659 1.66675 326.083V329.162C29.7541 347.638 60.2585 391.915 90.0127 435.193C110.516 464.988 131.769 495.865 152.188 518.336C174.025 542.305 192.694 554.04 209.113 554.04C210.113 554.04 211.113 553.957 212.113 553.874C229.949 552.292 245.202 537.062 258.703 507.267C276.289 468.567 296.709 437.606 319.462 415.218C341.882 393.163 365.302 380.596 389.055 377.933C423.81 374.021 457.565 391.998 486.486 429.949C526.658 482.715 571.165 518.336 622.339 538.893C667.595 557.12 712.268 561.614 755.441 566.025C819.95 572.6 880.876 578.758 934.217 629.859C978.056 671.889 976.056 695.858 966.721 708.592C953.053 727.151 914.047 735.058 862.373 729.815C808.282 724.322 748.357 705.346 698.1 677.798C635.674 643.592 595.002 633.605 557.663 643.259C521.241 652.664 488.653 681.377 443.563 721.159C422.31 739.885 398.307 761.024 369.386 784.245C326.547 818.7 294.125 832.849 267.288 828.771C235.2 823.944 214.28 792.983 190.027 757.113C168.274 724.904 143.604 688.451 105.515 662.817C73.9271 641.594 43.8394 630.941 15.7521 630.941C11.0014 630.941 6.33408 631.274 1.66675 631.857V634.354C33.2546 630.109 67.6762 640.346 104.181 664.815Z" fill="white"/>
<path d="M48.5067 909.917C87.0955 910.499 130.268 918.239 168.357 924.981C222.948 934.718 265.954 942.375 271.289 924.731C279.29 898.265 253.286 876.376 210.113 840.173C179.192 814.206 140.603 781.914 99.3473 735.474C68.3428 700.602 37.4218 684.789 7.58417 688.617C5.75057 688.867 3.83363 689.2 1.75 689.616V692.196C3.75029 691.78 5.83392 691.364 7.91755 691.114C36.9217 687.452 67.0093 702.932 97.5137 737.138C138.936 783.745 177.525 816.12 208.53 842.17C250.869 877.708 276.456 899.18 268.955 924.065C264.288 939.545 220.031 931.639 168.857 922.567C113.599 912.746 48.7567 901.178 1.83335 911.165V913.745C15.0019 910.915 30.5875 909.584 48.5067 909.917Z" fill="white"/>
<path d="M158.439 896.684C180.109 896.684 192.277 892.772 194.611 884.866C199.778 867.638 156.689 836.594 130.435 819.616C93.3466 795.563 49.1736 772.926 25.4202 765.685C17.5024 763.272 9.50129 761.607 1.66684 760.608V763.105C9.25126 764.104 17.0024 765.768 24.6701 768.099C48.2568 775.256 92.1798 797.727 129.018 821.697C171.941 849.577 195.528 872.881 192.111 884.116C188.777 895.102 159.106 897.1 108.515 889.776C67.5096 883.867 24.7535 873.63 1.5835 867.138V869.718C24.9202 876.293 67.4262 886.364 108.099 892.273C128.518 895.186 145.187 896.684 158.439 896.684Z" fill="white"/>
<path d="M51.0905 851.492C61.0919 851.492 66.676 849.577 67.7595 845.749C70.0932 838.092 53.4241 825.359 39.0054 816.037C26.587 807.964 12.4183 800.307 1.66675 795.647V798.393C12.1682 803.054 25.7535 810.461 37.6719 818.201C56.1745 830.186 66.7594 840.506 65.3425 845.083C63.0922 852.49 29.6708 848.329 1.66675 842.087V844.584C10.0846 846.415 19.5026 848.246 28.6706 849.577C37.7552 850.826 45.173 851.492 51.0905 851.492Z" fill="white"/>
<path fill-rule="evenodd" clip-rule="evenodd" d="M285.624 785.909C283.207 785.909 280.873 785.66 278.623 785.077C258.203 780 241.951 765.602 231.616 743.38C221.198 720.743 217.698 691.53 221.615 658.822C225.199 629.36 235.617 600.148 251.952 574.347C310.044 482.382 358.301 431.947 395.39 424.456C407.308 422.043 418.226 424.124 427.644 430.698C462.965 455.199 486.005 479.049 506.324 500.084L507.072 500.858L507.254 501.046C538.672 533.582 563.518 559.312 617.921 574.181C652.343 583.586 668.595 592.241 667.512 600.73C666.678 607.305 655.01 612.548 632.757 616.377C611.17 620.039 579.999 622.286 542.661 622.785C514.49 623.201 485.236 634.104 453.148 656.326C425.144 675.801 398.64 701.185 375.22 723.656C340.632 756.863 310.377 785.909 285.624 785.909ZM254.119 575.679C238.034 601.146 227.699 630.026 224.198 659.155C220.365 691.364 223.782 720.077 234.033 742.299C243.951 763.854 259.62 777.836 279.29 782.663C281.373 783.163 283.54 783.412 285.707 783.412C309.376 783.412 339.296 754.701 373.466 721.912L373.47 721.908C396.89 699.354 423.477 673.886 451.731 654.328C484.236 631.857 513.99 620.705 542.661 620.288C579.916 619.789 610.92 617.542 632.34 613.88C659.927 609.136 664.678 603.393 665.095 600.397C666.262 590.91 632.09 580.506 617.338 576.511C562.163 561.364 537.077 535.397 505.405 502.523L505.062 502.168C484.727 481.115 461.7 457.276 426.311 432.696C419.81 428.202 412.642 425.955 404.808 425.955C401.974 425.955 398.973 426.287 395.973 426.87C359.635 434.277 311.878 484.296 254.119 575.679Z" fill="white"/>
<path fill-rule="evenodd" clip-rule="evenodd" d="M873.125 694.027C834.036 688.368 789.446 678.963 763.109 672.555C719.186 661.902 700.35 652.414 698.183 640.013C696.266 628.778 708.434 615.212 736.355 597.318C751.607 587.58 771.443 585.5 795.53 591.326C814.616 595.903 836.369 605.391 860.206 619.539C899.878 643.092 932.3 671.889 933.883 673.304C945.552 681.543 950.219 687.702 948.135 692.279C946.135 696.524 938.134 698.688 923.799 698.688C911.547 698.688 894.711 697.106 873.125 694.027ZM770.527 590.493C757.858 590.493 746.94 593.489 737.772 599.315C711.185 616.377 699.016 629.527 700.683 639.347C703.017 653.413 733.855 662.734 763.692 669.975C836.036 687.535 939.634 704.68 945.802 691.114C946.635 689.283 946.052 684.789 932.383 675.135L932.3 675.051C932.281 675.037 932.154 674.927 931.926 674.726C928.176 671.443 896.898 644.05 858.956 621.537C835.369 607.555 813.866 598.15 795.03 593.656C786.279 591.575 778.111 590.493 770.527 590.493Z" fill="white"/>
<path d="M1166.33 650.583C1160.42 644.424 1153.66 638.099 1146 631.774C1116.83 607.721 1079.82 587.913 1035.98 572.849C981.223 554.04 915.631 542.555 841.037 538.726C798.364 536.563 716.519 528.989 647.426 502.44C574.665 474.559 534.326 433.362 527.659 380.014C519.908 318.259 527.492 279.975 551.579 259.418C577.916 236.947 625.589 235.948 697.266 256.589C747.023 270.904 787.279 290.545 819.617 306.358C851.538 322.005 876.792 334.322 899.295 336.486C923.715 338.816 942.801 328.912 961.137 304.361C972.806 288.714 982.057 273.9 990.225 260.833C1006.64 234.45 1018.56 215.391 1037.98 208.317C1058.48 200.827 1086.24 207.152 1130.91 229.457C1143.66 235.782 1155.42 242.856 1166.33 250.18V247.184C1155.75 240.11 1144.33 233.368 1132.08 227.21C1086.74 204.572 1058.4 198.247 1037.15 205.904C1016.9 213.311 1004.89 232.619 988.141 259.418C980.057 272.402 970.805 287.133 959.22 302.779C921.548 353.298 883.626 334.738 820.784 304.028C788.363 288.131 747.94 268.407 698.016 254.092C625.423 233.285 576.999 234.367 549.995 257.421C525.242 278.56 517.407 317.594 525.242 380.263C532.076 434.61 572.915 476.473 646.592 504.77C716.019 531.403 798.197 538.976 840.953 541.223C915.297 544.968 980.557 556.454 1035.06 575.18C1078.57 590.16 1115.33 609.802 1144.25 633.605C1152.75 640.596 1160.08 647.587 1166.33 654.245V650.583V650.583Z" fill="white"/>
<path d="M1166.33 597.568C1148.66 584.335 1127.41 571.018 1103.32 558.451C1034.9 522.664 954.22 497.779 876.292 488.458C797.364 478.97 739.772 468.567 695.099 455.583C638.008 439.104 602.003 418.547 585 392.914C573.498 375.519 570.998 355.462 577.416 333.157C582.25 316.678 591.084 305.775 604.503 299.866C649.926 279.726 737.022 321.921 813.866 359.124C841.953 372.773 868.541 385.59 891.127 394.412C929.216 409.309 952.636 412.638 969.472 405.398C985.724 398.407 995.059 382.261 1007.89 359.873C1015.64 346.39 1024.4 331.16 1036.73 314.348C1049.9 296.371 1066.57 286.966 1086.32 286.384C1113.33 285.635 1142.58 301.531 1166.33 319.008V315.929C1129.41 289.047 1102.82 283.471 1086.32 283.887C1065.82 284.469 1048.48 294.207 1034.81 312.85C1022.4 329.745 1013.64 345.142 1005.81 358.624C980.64 402.318 969.138 422.293 892.044 392.081C869.541 383.259 843.037 370.442 814.95 356.877C737.605 319.425 649.926 276.979 603.503 297.619C589.501 303.778 579.916 315.596 574.999 332.574C568.331 355.545 570.915 376.352 582.833 394.412C600.252 420.462 636.674 441.351 694.432 457.997C739.272 470.98 797.03 481.383 876.042 490.871C953.636 500.193 1033.98 524.994 1102.16 560.615C1126.58 573.432 1148.41 587.164 1166.33 600.813V597.568Z" fill="white"/>
<path d="M1166.33 559.866C1118.83 518.669 1054.4 502.19 1003.89 489.373C954.886 476.889 919.548 467.901 923.382 443.599C924.465 436.524 934.3 437.024 951.552 438.522C967.555 439.853 987.391 441.601 1006.14 435.276C1028.31 427.786 1043.57 410.891 1052.73 383.592C1059.15 364.45 1069.4 353.464 1083.07 351.134C1108.07 346.806 1140.91 371.108 1166.42 395.244V391.748C1165.75 391.166 1165.17 390.5 1164.5 389.917C1130.83 358.957 1103.32 345.058 1082.65 348.637C1067.99 351.134 1057.15 362.619 1050.4 382.76C1030.23 442.766 983.057 438.688 951.802 436.025C934.8 434.527 922.465 433.528 920.965 443.266C919.048 455.583 925.799 465.071 942.468 472.978C957.303 480.052 978.64 485.545 1003.31 491.787C1054.23 504.77 1119.16 521.332 1166.42 563.278V559.866H1166.33Z" fill="white"/>
<path d="M1166.33 537.728C1150.16 527.574 1132.41 513.176 1117.16 497.696C1094.32 474.476 1080.74 453.003 1078.99 437.107C1078.07 428.535 1080.65 421.71 1086.82 416.883C1108.49 399.905 1143.83 428.202 1166.33 450.756V447.177C1161.67 442.6 1156.58 437.856 1151.25 433.362C1138.83 422.958 1127.33 415.801 1117.24 412.139C1104.41 407.478 1093.57 408.394 1085.24 414.969C1078.4 420.295 1075.49 427.869 1076.49 437.44C1079.99 469.898 1128.74 517.42 1166.33 540.724V537.728V537.728Z" fill="white"/>
<path fill-rule="evenodd" clip-rule="evenodd" d="M880.901 437.853C881.188 438.057 881.349 438.171 881.376 438.189C891.294 445.596 894.711 451.672 891.794 456.332C888.46 461.243 877.709 463.157 863.54 463.157C844.12 463.157 818.117 459.578 795.28 455.001C739.689 443.931 686.681 425.122 653.51 404.732C616.171 381.761 603.503 356.877 616.921 332.741C620.505 326.249 626.506 322.088 634.674 320.257C661.011 314.348 710.601 332.491 781.945 374.021C832.082 403.147 875.881 434.284 880.901 437.853ZM858.789 460.494C881.876 461.076 888.043 457.165 889.627 454.834C892.294 450.756 885.793 444.681 879.875 440.27C877.708 438.688 714.352 321.672 645.259 321.672C641.591 321.672 638.258 322.005 635.174 322.67C627.756 324.335 622.339 328.08 619.088 333.906C612.421 345.891 612.504 358.042 619.422 370.11C625.672 381.095 637.591 391.998 654.76 402.568C687.681 422.792 740.356 441.518 795.697 452.504C819.45 457.248 841.87 460.077 858.789 460.494Z" fill="white"/>
<path fill-rule="evenodd" clip-rule="evenodd" d="M794.138 416.784C794.741 417.157 795.076 417.364 795.113 417.382C795.184 417.439 795.264 417.501 795.351 417.57C796.79 418.702 800.177 421.367 798.447 423.957C797.364 425.622 794.03 426.204 789.529 426.204C777.194 426.204 756.275 421.377 750.94 420.129C723.186 413.471 697.433 403.9 682.097 394.495C666.678 385.007 661.344 375.769 666.178 367.03C667.345 364.95 669.345 363.535 672.013 362.869C682.847 360.039 706.851 368.445 743.439 387.67C767.505 400.315 789.334 413.813 794.138 416.784ZM751.441 417.715C779.778 424.456 794.947 424.623 796.364 422.542C796.447 422.376 796.28 421.377 793.613 419.463C791.28 417.965 706.101 364.866 676.68 364.866C675.096 364.866 673.763 365.033 672.513 365.366C670.429 365.865 669.095 366.864 668.262 368.279C664.178 375.603 669.179 383.675 683.264 392.331C698.35 401.652 723.853 411.14 751.441 417.715Z" fill="white"/>
<path fill-rule="evenodd" clip-rule="evenodd" d="M303.21 723.573C294.875 727.068 288.041 728.483 282.457 728.483C271.122 728.483 264.871 722.574 261.454 716.498C239.201 677.132 289.458 550.378 357.801 500.942C378.221 486.211 396.557 480.218 412.225 483.214C425.144 485.711 436.229 494.117 445.23 508.266C454.065 522.081 458.315 538.061 457.732 554.54C457.149 570.935 451.731 586.665 442.146 599.981L439.563 603.56L439.412 603.769C407.621 647.897 374.774 693.492 303.21 723.573ZM359.301 503.022C328.38 525.41 297.959 566.774 277.956 613.63C259.204 657.574 253.536 697.439 263.621 715.25C270.372 727.151 283.29 729.149 302.21 721.159C373.22 691.281 405.891 645.922 437.479 601.979L440.063 598.4C449.397 585.5 454.648 570.269 455.232 554.373C455.815 538.394 451.648 522.913 443.147 509.597C434.562 496.115 423.977 488.042 411.809 485.711C409.308 485.212 406.725 484.962 404.141 484.962C390.889 484.962 375.887 491.038 359.301 503.022Z" fill="white"/>
<path fill-rule="evenodd" clip-rule="evenodd" d="M326.63 666.396C321.462 668.56 317.212 669.475 313.795 669.475C307.294 669.475 303.71 666.229 301.71 662.817C295.959 652.664 299.459 631.191 310.794 606.806C322.629 581.505 340.382 558.534 358.384 545.551C370.303 536.979 380.971 533.483 390.222 535.231C397.807 536.646 404.391 541.556 409.642 549.879C420.06 566.358 419.393 587.331 407.808 603.393C389.389 628.944 369.303 648.419 326.63 666.396ZM359.885 547.632C342.299 560.365 324.796 582.92 313.128 607.888C302.293 631.191 298.709 652.247 303.96 661.652C307.46 667.894 314.795 668.726 325.713 664.149C367.886 646.422 387.639 627.196 405.808 601.979C416.809 586.748 417.476 566.857 407.558 551.294C402.641 543.637 396.723 539.059 389.806 537.728C388.389 537.478 386.972 537.312 385.472 537.312C377.887 537.312 369.386 540.807 359.885 547.632Z" fill="white"/>
<path d="M345.466 622.119C346.549 622.119 347.883 621.87 349.466 621.204C361.801 616.044 367.552 610.384 372.886 602.977C376.387 598.15 376.637 591.742 373.47 586.831C371.803 584.251 369.803 582.753 367.386 582.254C364.552 581.671 361.218 582.753 357.634 585.333C346.716 593.24 337.381 612.881 341.299 619.789C341.882 620.788 343.049 622.119 345.466 622.119Z" stroke="white" stroke-width="5"/>
<path d="M1166.33 1094.68C1142.5 1093.6 1119.33 1090.52 1098.82 1085.52C1071.82 1078.95 1049.15 1069.05 1031.48 1056.23C1009.81 1040.5 995.559 1020.19 988.975 995.723C979.807 961.351 965.305 928.892 947.052 901.76C925.632 869.885 899.378 845.333 868.874 828.688C812.783 797.977 744.523 795.064 666.095 820.032C571.082 850.243 497.154 881.953 443.147 905.173C374.22 934.718 336.215 951.031 327.547 933.137C326.797 931.556 326.713 929.891 327.38 928.06C332.297 914.494 373.053 896.018 420.31 874.712C455.482 858.816 495.404 840.755 526.825 821.613C563.164 799.475 582.25 779.418 585.167 760.359C589.251 733.56 600.086 714.751 616.421 706.012C635.007 696.108 660.428 698.688 692.099 713.669C750.274 741.133 892.294 773.925 978.556 773.925C1008.31 773.925 1031.48 770.013 1042.23 760.608C1048.73 754.949 1050.57 747.542 1047.65 738.553C1038.06 708.841 1049.15 678.131 1073.4 667.228C1103.82 653.579 1137.41 673.387 1166.33 705.096V700.935C1155 688.784 1143.5 679.296 1131.91 672.471C1110.66 659.904 1089.49 657.241 1072.4 664.981C1046.98 676.383 1035.31 708.342 1045.32 739.302C1047.9 747.292 1046.32 753.701 1040.65 758.694C1022.73 774.341 964.804 775.672 881.626 762.273C809.782 750.704 732.355 729.815 693.266 711.338C660.844 696.025 634.674 693.528 615.421 703.765C598.335 712.836 587.084 732.311 582.833 759.943C576.499 801.306 489.403 840.755 419.393 872.382C369.719 894.853 330.464 912.58 325.213 927.145C324.296 929.641 324.38 931.972 325.463 934.136C330.13 943.79 341.549 945.454 362.635 939.545C382.055 934.052 409.558 922.317 444.313 907.42C498.238 884.283 572.165 852.574 667.012 822.362C744.773 797.644 812.366 800.474 867.874 830.768C897.962 847.247 923.965 871.549 945.135 903.009C963.221 929.974 977.64 962.183 986.724 996.223C993.392 1021.19 1007.98 1042 1030.15 1058.06C1048.07 1071.04 1071.07 1081.03 1098.41 1087.77C1119.16 1092.85 1142.58 1096.01 1166.58 1097.01V1094.68H1166.33Z" fill="white"/>
<path d="M1166.33 1044.16C1127.33 1053.23 1096.57 1051.82 1072.9 1039.92C1037.98 1022.27 1022.65 983.822 1011.31 944.872C999.309 903.758 964.888 873.38 937.217 848.995C918.631 832.599 903.962 819.699 903.296 809.379C903.129 806.466 904.129 803.886 906.296 801.473C913.881 792.983 938.051 798.31 968.722 805.051C993.309 810.461 1023.98 817.202 1055.9 819.033C1070.65 819.866 1080.32 817.369 1085.57 811.377C1093.07 802.721 1090.24 788.24 1087.24 772.926C1082.99 751.537 1078.65 729.482 1098.91 717.331C1105.66 713.252 1113.16 712.503 1121.16 714.834C1134.66 718.912 1150.08 732.395 1166.42 754.117V749.872C1153.08 732.561 1137.5 717.164 1121.91 712.503C1113.24 709.84 1105.07 710.756 1097.66 715.167C1075.9 728.233 1080.65 752.202 1084.82 773.425C1087.74 788.156 1090.49 802.055 1083.74 809.795C1079.07 815.122 1069.99 817.369 1056.07 816.537C1024.31 814.706 993.809 807.964 969.305 802.554C936.717 795.397 913.13 790.154 904.546 799.725C901.962 802.638 900.712 805.884 900.962 809.462C901.629 820.781 916.631 834.014 935.717 850.743C963.138 874.878 997.309 905.006 1009.06 945.454C1020.56 984.904 1036.06 1023.94 1071.9 1042C1085.66 1048.9 1101.74 1052.4 1120.33 1052.4C1134.25 1052.4 1149.58 1050.49 1166.42 1046.57V1044.16H1166.33Z" fill="white"/>
<path d="M1166.33 979.577C1146.66 984.654 1122.66 987.567 1103.16 980.16C1088.82 974.75 1078.4 964.264 1072.24 949.116C1063.74 928.143 1048.82 908.668 1036.81 893.022C1024.98 877.625 1014.81 864.309 1017.98 858.316C1019.98 854.571 1027.23 853.156 1040.15 853.905L1044.48 854.155C1083.15 856.485 1102.66 857.65 1112.24 848.912C1116.91 844.667 1119.16 838.009 1119.41 827.439C1119.83 812.875 1127.58 800.724 1138.75 797.145C1147.08 794.482 1156.5 796.562 1166.33 802.887V799.808C1153.66 792.151 1143.83 792.9 1138 794.814C1125.83 798.726 1117.33 811.793 1116.91 827.439C1116.66 837.26 1114.66 843.335 1110.58 847.081C1101.74 855.154 1081.49 853.905 1044.65 851.658L1040.32 851.408C1026.06 850.576 1018.31 852.407 1015.73 857.151C1011.81 864.558 1021.4 877.125 1034.73 894.603C1046.65 910.166 1061.49 929.475 1069.82 950.115C1076.24 965.928 1087.16 976.831 1102.16 982.573C1110.99 985.902 1120.66 987.234 1130.33 987.234C1143.08 987.234 1155.75 984.987 1166.25 982.324V979.577H1166.33Z" fill="white"/>
<path d="M1166.33 932.221C1146.33 932.721 1117.99 930.224 1112.66 912.746C1109.41 902.093 1111.66 891.773 1118.83 883.7C1128.49 872.798 1145.58 867.138 1166.33 867.471V864.974C1144.83 864.725 1127.08 870.634 1116.99 882.036C1109.16 890.858 1106.74 902.01 1110.24 913.495C1114.08 925.979 1128.24 933.054 1152.33 934.469C1155.5 934.635 1158.67 934.718 1161.67 934.718C1163.25 934.718 1164.75 934.718 1166.25 934.635V932.221H1166.33Z" fill="white"/>
<path d="M93.3464 625.948C124.851 638.848 154.939 651.249 175.275 651.249C180.776 651.249 185.526 650.333 189.443 648.336C194.944 645.506 198.445 640.429 199.945 633.355C203.529 616.71 185.776 600.647 158.856 576.345C132.185 552.292 95.6801 519.418 63.4255 470.148C41.589 436.774 20.9194 415.302 1.83335 405.73V408.477C20.2526 418.048 40.1722 439.021 61.3419 471.479C93.8465 521.082 130.435 554.04 157.189 578.176C183.443 601.895 200.862 617.542 197.528 632.772C196.111 639.181 193.111 643.509 188.277 646.005C171.024 655.077 133.769 639.763 94.3466 623.534C68.3428 612.881 41.4223 601.812 18.0857 596.819C12.2515 595.57 6.75071 594.738 1.75 594.322V596.819C6.58402 597.235 11.9181 597.984 17.5856 599.232C40.6722 604.309 67.4261 615.295 93.3464 625.948Z" fill="white"/>
<path d="M81.4281 581.006C90.096 581.006 95.5967 578.842 97.8471 574.597C103.348 563.944 86.7622 543.637 48.4233 514.008C31.0875 500.692 13.085 488.374 1.75 480.801V483.714C39.6721 508.931 104.348 556.62 95.6801 573.432C93.8465 577.011 88.8458 578.592 81.8448 578.592C63.4255 578.592 30.7541 568.105 1.75 556.953V559.616C8.00089 562.03 14.5852 564.443 21.2528 566.774C48.34 576.262 68.5095 581.006 81.4281 581.006Z" fill="white"/>
<path fill-rule="evenodd" clip-rule="evenodd" d="M439.229 776.505C443.73 768.931 448.481 762.106 453.481 756.114C469.4 736.972 493.32 726.985 517.407 729.315C531.576 730.73 538.743 735.724 538.827 744.296C538.993 772.676 452.564 831.933 413.642 836.095C407.975 836.761 403.641 837.01 400.39 837.01C393.389 837.01 391.056 835.762 390.222 833.931C388.555 830.102 394.556 824.61 404.558 815.455C415.226 805.717 429.811 792.401 439.229 776.505ZM489.403 797.394C518.491 776.754 536.576 756.364 536.493 744.379C536.41 737.305 529.992 733.144 517.407 731.895C515.157 731.646 512.906 731.562 510.656 731.562C489.653 731.562 469.484 741.05 455.565 757.695C450.648 763.521 445.98 770.346 441.563 777.753C432.064 793.837 417.408 807.223 406.681 817.021L406.391 817.286L406.013 817.632C398.963 824.099 391.74 830.723 392.723 832.849C393.306 834.181 397.39 835.346 413.559 833.598C431.395 831.684 461.149 817.452 489.403 797.394Z" fill="white"/>
<path d="M83.0951 330.743C101.848 365.199 121.934 400.654 141.52 426.537C163.106 454.917 181.859 468.733 198.945 468.733C199.112 468.733 199.278 468.733 199.445 468.733C216.447 468.483 231.45 454.834 245.285 427.203C274.372 369.194 308.794 333.74 344.882 324.834C369.553 318.759 394.89 324.751 420.143 342.811C439.563 356.71 453.398 361.288 462.233 356.877C475.318 350.385 476.068 326.166 476.901 298.202C477.818 267.491 478.818 232.619 497.238 216.64C505.822 209.233 517.324 206.486 532.409 208.151C571.915 212.645 609.504 206.653 641.091 191.006C671.096 176.109 694.349 153.388 708.268 125.257C721.52 98.5415 725.354 68.4135 719.519 38.2855C717.102 25.7183 713.018 13.4008 707.434 1.33292H704.601C724.103 42.4468 725.187 85.7246 706.101 124.175C692.432 151.806 669.596 174.111 640.091 188.759C608.92 204.239 571.748 210.065 532.743 205.654C517.157 203.906 504.655 206.902 495.654 214.726C476.401 231.371 475.401 266.825 474.401 298.035C473.651 324.085 472.901 348.72 461.149 354.546C453.148 358.541 440.229 353.964 421.56 340.647C395.64 322.171 369.636 316.012 344.216 322.254C307.377 331.409 272.372 367.28 243.035 425.955C229.616 452.67 215.364 465.82 199.445 466.07C199.278 466.07 199.112 466.07 198.945 466.07C162.69 466.07 122.934 398.573 85.262 329.329C62.1754 286.883 34.0881 257.754 1.66675 242.274V245.02C33.2546 260.667 60.5918 289.297 83.0951 330.743Z" fill="white"/>
<path d="M114.516 223.881C128.935 223.881 141.603 221.8 152.022 217.555C175.775 207.901 187.61 188.176 187.193 158.714C186.777 129.835 194.528 108.362 210.863 93.1317C251.119 55.3469 337.798 61.8386 429.645 68.8296C443.147 69.8283 457.149 70.9103 470.901 71.8258C484.319 72.7413 496.654 73.1574 507.989 73.1574C559.747 73.1574 589.084 63.9192 595.502 45.5262C600.002 32.5428 592.501 16.813 580.5 1.49936H577.249C589.584 16.7298 597.419 32.2932 593.168 44.7771C585.834 65.9167 544.828 74.2393 471.151 69.4122C457.399 68.4967 443.397 67.4148 429.895 66.416C337.548 59.425 250.286 52.8501 209.196 91.384C192.361 107.197 184.36 129.252 184.776 158.881C185.193 187.178 173.858 206.237 151.188 215.391C122.017 227.21 74.5939 221.8 20.9196 200.577C14.502 198.08 8.16773 195.334 1.8335 192.504V195.251C7.83435 197.997 13.9186 200.577 20.0028 202.908C55.0911 216.723 87.7624 223.881 114.516 223.881Z" fill="white"/>
<path d="M66.7594 144.649C96.7637 142.818 122.184 127.088 142.437 97.8757L145.771 93.0485C170.358 57.594 182.693 39.7836 200.945 32.3764C219.198 24.9692 243.951 27.6325 293.292 33.0422C299.293 33.708 305.71 34.3738 312.461 35.1229C370.886 41.4481 413.226 43.5287 441.896 41.5313C469.484 39.6171 485.153 34.0409 491.153 23.9705C494.821 17.8118 494.654 10.3214 491.653 1.49936H489.07C492.07 9.98846 492.404 17.0627 488.986 22.7221C483.486 31.9603 468.067 37.2868 441.73 39.1177C413.226 41.032 371.053 38.9513 312.711 32.6261C305.96 31.877 299.543 31.2112 293.542 30.5454C243.785 25.0525 218.864 22.306 199.945 30.0461C181.026 37.7861 168.524 55.763 143.687 91.6337L140.353 96.4608C120.517 125.007 95.7635 140.404 66.5927 142.152C51.5906 143.068 29.8374 140.488 1.66675 127.338V130.084C26.4203 141.486 46.2565 144.815 61.0086 144.815C63.0088 144.815 64.9258 144.732 66.7594 144.649Z" fill="white"/>
<path d="M100.931 85.891C112.849 80.3149 121.017 70.827 125.101 57.6773C131.185 38.5352 132.519 19.2266 131.519 1.41614H129.018C130.018 18.9769 128.685 38.0358 122.684 56.9282C118.767 69.4122 111.016 78.4007 99.764 83.6439C73.0102 96.2111 31.3376 85.891 1.75 75.7374V78.4007C21.6695 85.2252 46.8398 91.9666 69.5097 91.9666C80.928 91.8833 91.7629 90.2188 100.931 85.891Z" fill="white"/>
<path d="M614.754 62.8373C598.169 95.3789 525.158 90.9679 524.325 90.8846C483.402 90.8846 445.397 87.9717 411.892 85.3085C362.052 81.3968 318.962 78.0677 287.124 86.3072C270.288 90.635 257.203 98.0421 247.202 108.862C236.367 120.513 229.033 136.243 224.699 156.8C210.28 225.545 172.524 233.785 142.103 240.359C123.767 244.354 107.932 247.767 102.681 264.079C97.9305 278.977 103.431 308.605 116.85 339.565C131.185 372.773 150.688 398.49 169.024 408.311C174.941 411.473 180.859 413.054 186.443 413.054C197.111 413.054 207.196 407.395 216.031 396.326C229.449 379.514 240.368 361.204 250.952 343.477C270.705 310.353 287.708 281.806 314.128 275.398C330.38 271.486 349.3 276.313 371.803 290.379C401.641 308.938 422.31 314.764 435.062 308.189C450.898 300.033 452.481 274.815 454.148 248.016C456.398 212.062 458.732 174.86 495.737 176.525C504.239 176.858 512.406 177.107 520.324 177.107C600.336 177.107 652.26 158.215 674.68 120.763C692.349 91.384 687.848 55.9295 681.014 31.4609C677.763 19.726 673.679 9.40588 670.096 1.41614H667.345C671.012 9.40588 675.263 20.1421 678.597 32.2099C690.682 75.7374 681.931 103.702 672.513 119.515C648.342 159.796 588.834 178.189 495.821 174.111C478.068 173.362 466.233 180.852 459.649 197.082C453.898 211.147 452.731 229.873 451.648 248.016C450.064 274.066 448.481 298.618 433.895 306.108C421.977 312.267 402.141 306.441 373.053 288.381C349.883 273.983 330.38 268.989 313.461 273.151C286.041 279.809 268.705 308.772 248.702 342.395C238.201 360.039 227.282 378.266 213.947 394.911C200.945 411.14 186.193 414.885 170.024 406.23C152.188 396.659 133.019 371.441 118.933 338.733C106.015 308.772 100.347 279.143 104.848 264.994C109.682 250.014 124.101 246.851 142.437 242.939C157.772 239.61 175.108 235.865 190.61 224.047C208.53 210.398 220.448 188.593 226.949 157.383C235.033 118.682 253.703 97.5428 287.541 88.804C301.71 85.142 318.295 83.8104 336.715 83.8104C359.051 83.8104 384.305 85.8078 411.475 87.8885C445.063 90.4685 483.069 93.4647 523.991 93.4647C523.991 93.4647 523.991 93.4647 524.075 93.4647C524.241 93.4647 543.077 94.7131 563.664 91.7169C591.668 87.722 609.504 78.4007 616.838 64.0857C624.756 48.5223 619.672 27.5493 601.669 1.49936H598.669C617.005 27.2996 622.339 47.8565 614.754 62.8373Z" fill="white"/>
<path d="M621.089 93.0485C607.42 110.11 566.081 117.184 501.655 113.522C452.731 110.776 407.391 102.703 406.975 102.62C406.725 102.536 379.054 97.626 347.883 103.702C329.464 107.197 313.461 113.772 300.209 123.26C283.624 135.078 271.372 151.39 263.871 171.698C249.369 211.064 233.117 237.946 214.114 253.925C197.611 267.824 181.526 271.486 166.524 274.066C144.604 277.811 137.186 291.793 134.852 302.863C130.185 324.501 141.437 353.714 158.939 365.449C163.69 368.611 168.524 370.193 173.191 370.193C177.525 370.193 181.776 368.861 185.776 366.115C202.195 354.962 219.031 333.49 236.867 310.852C270.789 267.658 305.877 223.048 341.132 245.436C346.299 248.682 351.3 251.928 356.051 255.091C381.888 271.986 402.391 285.385 415.309 279.06C422.977 275.315 427.311 265.411 428.895 247.767C432.145 211.313 438.146 183.849 456.898 168.369C470.234 157.299 489.236 153.221 515.073 155.718C587.417 162.792 635.091 149.975 656.844 117.767C674.263 91.9666 671.262 58.4263 665.678 34.79C662.511 21.3905 658.177 9.57234 654.76 1.33292H652.093C655.51 9.48911 660.011 21.557 663.261 35.3726C668.679 58.5095 671.596 91.3008 654.76 116.352C633.59 147.728 586.667 160.129 515.324 153.221C488.82 150.641 469.234 154.969 455.315 166.454C435.979 182.517 429.728 210.481 426.394 247.6C424.894 264.079 420.977 273.65 414.226 276.896C402.557 282.555 382.638 269.572 357.468 253.093C352.634 249.931 347.633 246.685 342.465 243.439C325.713 232.786 307.627 235.449 287.208 251.595C269.372 265.577 251.869 287.882 234.95 309.437C217.281 331.992 200.529 353.215 184.443 364.201C175.025 370.609 166.19 367.363 160.356 363.451C143.604 352.216 132.852 324.169 137.269 303.445C139.52 293.125 146.437 280.059 166.94 276.563C182.276 273.9 198.695 270.155 215.697 255.84C235.033 239.527 251.536 212.312 266.205 172.53C273.539 152.639 285.457 136.742 301.543 125.257C314.461 116.019 330.214 109.611 348.216 106.115C359.885 103.868 371.053 103.119 380.471 103.119C395.806 103.119 406.308 105.033 406.475 105.033C406.891 105.116 452.398 113.189 501.488 115.936C567.664 119.681 608.587 112.524 623.006 94.5466C637.258 76.8194 640.591 53.0166 632.59 25.4686C629.84 16.064 626.256 7.74136 623.089 1.33292H620.255C623.506 7.65813 627.34 16.3137 630.173 26.1344C635.591 44.8604 638.424 71.4929 621.089 93.0485Z" fill="white"/>
<path fill-rule="evenodd" clip-rule="evenodd" d="M354.384 126.006C363.302 121.678 373.22 120.763 382.388 123.509C391.306 126.173 398.057 131.749 402.391 140.072C415.393 165.123 403.891 209.15 395.89 233.119C393.806 239.444 391.222 242.773 387.805 243.522C387.305 243.605 386.805 243.689 386.305 243.689C380.753 243.689 374.377 237.189 366.44 229.097L366.302 228.957C358.718 221.217 350.133 212.479 339.798 206.32C322.546 196 314.045 184.431 314.545 171.781C315.462 149.726 344.382 130.917 354.384 126.006ZM387.305 241.108C389.722 240.526 391.806 237.696 393.556 232.37C411.892 177.274 405.558 151.64 400.14 141.32C396.14 133.663 389.889 128.503 381.638 126.006C378.387 125.008 375.053 124.508 371.636 124.508C366.135 124.508 360.635 125.757 355.467 128.253C345.799 132.997 317.879 151.057 317.045 171.864C316.545 183.516 324.713 194.418 341.132 204.156C351.618 210.34 360.632 219.546 367.93 227L368.136 227.21L368.23 227.306C376.025 235.255 382.74 242.103 387.305 241.108Z" fill="white"/>
<path fill-rule="evenodd" clip-rule="evenodd" d="M358.885 164.623C361.802 163.208 365.052 162.876 368.053 163.791C371.053 164.707 373.303 166.538 374.72 169.367C378.887 177.357 375.304 191.089 372.803 198.58C372.387 199.995 371.553 201.909 369.719 202.325C369.469 202.408 369.303 202.408 369.053 202.408C366.989 202.408 365.007 200.367 362.378 197.659L362.302 197.581C360.051 195.251 357.468 192.587 354.384 190.756C348.8 187.427 346.049 183.599 346.216 179.354C346.529 171.4 357.305 165.492 358.73 164.71C358.826 164.658 358.879 164.629 358.885 164.623ZM369.219 199.828C369.469 199.828 369.97 199.162 370.47 197.747C372.303 192.005 376.387 177.856 372.637 170.449C371.47 168.285 369.803 166.87 367.469 166.205C366.552 165.955 365.552 165.788 364.635 165.788C363.052 165.788 361.552 166.121 360.051 166.87C357.801 168.036 349.05 173.445 348.8 179.521C348.633 182.683 350.967 185.763 355.717 188.593C359.051 190.59 361.885 193.503 364.135 195.833C364.249 195.946 364.364 196.061 364.48 196.178C366.252 197.952 368.359 200.062 369.219 199.828Z" fill="white"/>
<path d="M1166.33 194.418C1120.24 161.627 1064.74 134.329 1020.73 149.643C988.891 160.712 966.805 193.004 955.22 245.603C949.886 269.905 936.55 285.219 915.631 291.128C876.458 302.28 813.783 276.646 770.027 231.454C734.938 195.334 720.853 155.635 731.354 122.594C741.106 91.9666 743.856 58.676 739.606 23.8041C738.689 16.3969 737.439 8.98974 735.938 1.49936H733.355C734.938 9.1562 736.188 16.6466 737.105 24.137C741.356 58.676 738.605 91.6337 729.021 121.928C718.186 155.885 732.521 196.416 768.276 233.285C789.113 254.758 815.283 272.818 842.037 284.137C861.04 292.21 879.376 296.288 895.545 296.288C903.046 296.288 910.047 295.372 916.381 293.624C937.884 287.549 952.219 271.153 957.72 246.185C969.138 194.502 990.558 162.876 1021.56 152.056C1065.07 136.909 1120.49 164.707 1166.33 197.581V194.418V194.418Z" fill="white"/>
<path d="M1166.33 129.585C1132.33 100.539 1078.99 74.8219 1035.65 83.5607C1008.73 88.9704 988.225 106.864 974.806 136.576C956.22 177.69 932.633 206.486 904.629 222.299C874.625 239.194 847.954 236.365 830.869 231.038C810.199 224.546 792.363 210.897 780.612 192.587C768.443 173.695 763.942 151.39 768.026 129.835C776.444 85.0588 779.695 41.9474 777.611 1.41614H775.111C777.111 41.6978 773.944 84.7259 765.609 129.335C761.442 151.557 766.026 174.444 778.528 193.836C790.613 212.645 808.949 226.627 830.202 233.285C839.12 236.115 848.288 237.447 857.456 237.447C873.875 237.447 890.461 233.036 905.879 224.38C934.383 208.317 958.304 179.105 977.14 137.491C990.225 108.529 1010.06 91.2175 1036.15 85.891C1057.32 81.6465 1082.74 85.4749 1109.66 97.1266C1129.83 105.865 1150.16 118.682 1166.33 132.831V129.585V129.585Z" fill="white"/>
<path d="M1166.33 80.4813C1159.5 81.0639 1151.91 81.0639 1143.83 80.3149C1115.41 77.6516 1081.07 66.6657 1049.57 50.0204C1013.06 30.7119 982.557 59.5082 947.302 92.7988C920.465 118.183 890.044 146.896 852.372 157.299C839.12 160.961 828.868 159.047 821.784 151.806C797.697 126.922 813.783 45.443 824.784 1.58258H822.201C818.867 14.982 815.033 31.7106 812.033 49.1881C802.781 103.535 805.448 138.657 819.95 153.637C825.201 159.047 831.952 161.71 840.12 161.71C844.12 161.71 848.371 161.045 853.038 159.796C891.211 149.31 921.965 120.347 948.969 94.713C983.557 62.0883 1013.39 33.8745 1048.32 52.3507C1080.49 69.4122 1114.33 80.2316 1143.5 82.8949C1151.66 83.6439 1159.33 83.7271 1166.25 83.1446V80.4813H1166.33Z" fill="white"/>
<path d="M858.706 111.025C860.039 111.192 861.29 111.275 862.623 111.275C884.793 111.275 909.547 86.973 922.798 71.8258C940.384 51.8514 957.47 25.8847 969.388 1.33292H966.638C954.886 25.3022 938.134 50.603 920.965 70.1612C897.295 97.1266 875.292 110.776 859.039 108.529C852.288 107.613 847.871 104.534 845.537 99.2905C836.786 79.3162 860.456 32.8758 879.042 1.41614H876.125C872.458 7.74136 868.541 14.5659 864.79 21.6402C844.371 60.0076 837.12 86.4736 843.287 100.289C845.871 106.365 851.122 110.027 858.706 111.025Z" fill="white"/>
<path d="M892.044 56.1792C892.544 56.2624 893.128 56.2624 893.711 56.2624C898.712 56.2624 906.63 53.2663 917.631 40.6991C925.799 31.4609 933.633 18.8937 938.217 7.90781C938.968 6.07683 939.801 3.82971 940.551 1.41614H937.967C937.384 3.1639 936.717 4.99488 935.967 6.90909C926.549 29.5467 905.046 55.4301 892.461 53.5992C890.127 53.2663 888.627 52.2675 887.794 50.4366C883.543 40.7823 900.795 12.2356 908.213 1.33292H905.213C899.879 9.40589 880.459 39.7836 885.543 51.4353C886.627 54.0985 888.794 55.6798 892.044 56.1792Z" fill="white"/>
<path d="M1166.33 47.5236C1154.91 53.6824 1141.66 55.9295 1126.83 54.0153C1110.24 51.9346 1091.66 44.9436 1071.49 33.2087C1053.9 22.9718 1038.15 10.8207 1026.98 1.41614H1023.15C1034.56 11.1536 1051.32 24.3867 1070.24 35.3726C1090.74 47.2739 1109.66 54.4314 1126.58 56.5121C1130.08 56.9282 1133.5 57.1779 1136.91 57.1779C1147.75 57.1779 1157.58 54.9308 1166.42 50.3533V47.5236H1166.33Z" fill="white"/>
<path fill-rule="evenodd" clip-rule="evenodd" d="M632.59 747.958C648.509 738.637 676.097 738.387 714.602 747.292C741.205 753.491 764.065 762.103 767.344 763.338C767.455 763.38 767.544 763.413 767.61 763.438C792.363 768.015 795.447 772.094 795.28 775.09C795.114 779.168 788.446 784.744 738.105 792.234C706.851 796.895 669.596 800.724 642.425 803.47L635.674 804.136C630.757 804.635 626.339 804.885 622.339 804.885C607.087 804.885 598.169 801.223 595.835 794.065C591.585 781.165 611.171 760.525 632.59 747.958ZM737.605 789.821C787.029 782.414 792.53 777.004 792.613 775.007C792.697 774.008 790.946 770.346 766.86 765.852L766.61 765.768C766.597 765.764 766.523 765.736 766.39 765.685C763.905 764.739 740.836 755.947 713.935 749.706C699.35 746.293 681.931 743.297 666.095 743.297C653.677 743.297 642.175 745.211 633.757 750.122C623.172 756.364 613.254 764.437 606.503 772.343C599.419 780.749 596.419 788.156 598.085 793.316C600.669 800.973 613.504 803.886 635.257 801.639L642.092 801.056C644.1 800.847 646.162 800.633 648.273 800.414C674.724 797.668 708.738 794.137 737.605 789.821Z" fill="white"/>
<path fill-rule="evenodd" clip-rule="evenodd" d="M650.926 219.636C650.26 212.978 659.344 205.155 677.847 196.249C690.015 190.424 704.434 192.255 714.602 200.993C722.603 207.901 731.271 217.722 726.937 225.878C723.603 232.203 713.019 235.532 698.933 235.532C689.515 235.532 678.514 234.034 667.012 230.955C656.594 228.208 651.343 224.463 650.926 219.636ZM667.595 228.541C694.182 235.699 719.769 233.951 724.687 224.713C727.521 219.47 723.437 211.896 712.935 202.908C707.101 197.997 699.85 195.417 692.516 195.417C687.848 195.417 683.181 196.416 678.847 198.497C661.928 206.653 652.843 214.06 653.343 219.386C653.677 222.965 658.594 226.128 667.595 228.541Z" fill="white"/>
<path d="M913.714 1140.79C870.291 1135.29 844.787 1098.51 812.616 1051.9C803.615 1038.92 794.28 1025.44 783.778 1011.45C757.441 976.415 727.937 955.358 696.183 948.867C660.094 941.543 620.422 952.862 578.332 982.49C532.076 1015.03 465.15 1067.38 407.725 1115.99C391.639 1129.63 370.636 1147.78 350.05 1166.59H353.717C370.053 1151.77 388.639 1135.46 409.308 1117.9C466.65 1069.38 533.493 1017.03 579.666 984.571C658.094 929.392 726.104 938.963 781.695 1013.03C792.113 1026.93 801.448 1040.42 810.449 1053.4C843.037 1100.51 868.791 1137.62 913.297 1143.28C944.885 1147.28 962.971 1155.1 967.305 1166.59H969.972C965.888 1153.69 946.968 1145.03 913.714 1140.79Z" fill="white"/>
<path d="M1016.31 654.911C1018.65 655.493 1020.81 655.743 1022.9 655.743C1034.06 655.743 1041.9 647.836 1044.82 639.347C1048.32 628.944 1045.57 614.962 1031.23 608.97C1008.06 599.232 991.808 596.319 982.807 600.231C978.723 601.979 976.806 606.14 977.223 611.966C977.806 619.373 982.224 628.611 989.058 636.767C996.726 645.922 1006.39 652.331 1016.31 654.911Z" stroke="white" stroke-width="5"/>
<path fill-rule="evenodd" clip-rule="evenodd" d="M286.707 876.044C283.79 870.051 284.29 861.396 292.458 856.569C304.793 849.328 321.462 852.657 328.047 858.316C330.88 860.73 331.881 863.56 330.797 866.223C328.63 871.882 320.296 877.708 306.127 883.451C304.043 884.283 301.96 884.699 300.043 884.699C293.875 884.699 289.041 880.704 286.707 876.044ZM305.21 881.12C318.545 875.711 326.63 870.218 328.547 865.307C329.38 863.227 327.88 861.396 326.38 860.23C322.879 857.234 315.962 854.987 308.627 854.987C303.543 854.987 298.292 856.069 293.708 858.732C286.874 862.727 286.374 869.718 288.958 874.878C291.541 880.038 297.709 884.2 305.21 881.12Z" fill="white"/>
<path d="M69.6764 58.5928C83.1783 49.3546 78.6777 19.9756 74.2604 1.41614H71.6767C72.8435 6.07682 73.927 11.4865 74.8438 17.1459C77.0108 31.5441 77.6775 50.1036 68.2595 56.5953C57.2579 64.0857 34.9214 54.265 1.75 27.3828V30.6286C27.337 51.1856 46.7564 61.5057 59.7583 61.5057C63.5922 61.4224 66.926 60.507 69.6764 58.5928Z" fill="white"/>
<path fill-rule="evenodd" clip-rule="evenodd" d="M563.914 609.968C551.662 609.968 538.577 608.72 529.242 605.141C515.907 600.064 515.24 592.491 517.074 586.998C518.991 581.089 522.908 576.761 528.826 574.181C539.41 569.603 556.079 570.685 578.333 577.51C594.752 582.587 608.337 588.995 608.504 589.078C615.505 592.574 615.755 595.903 614.838 598.067C612.087 604.309 594.752 607.971 579.499 609.303C574.749 609.719 569.415 609.968 563.914 609.968ZM529.826 576.428C524.575 578.675 521.074 582.504 519.408 587.747C517.324 594.239 520.908 599.315 530.242 602.811C541.244 606.972 560.08 608.47 579.333 606.806C597.085 605.224 610.754 601.23 612.587 597.068C613.504 594.904 610.254 592.74 607.42 591.326C606.587 590.909 570.415 573.931 544.411 573.931C538.994 573.931 533.993 574.597 529.826 576.428Z" fill="white"/>
</g>
<g opacity="0.21">
<path d="M1016.46 1085.66C972.472 1077.68 967.224 1047.82 960.559 1009.98C953.061 967.73 943.814 915.169 876.5 873.252C842.759 852.294 810.435 839.154 777.611 833.083C748.286 827.677 719.128 828.01 688.637 834.164C631.986 845.641 578.502 876.246 526.683 905.771C478.197 933.465 428.044 962.158 374.06 976.296C345.068 983.948 317.409 986.775 289.501 985.112C258.176 983.199 227.352 975.631 195.361 961.908C139.46 937.956 83.8927 929.64 30.2413 937.125C20.3275 938.538 10.497 940.451 0.749756 942.946V945.525C10.6636 943.03 20.5774 941.034 30.6579 939.62C83.8927 932.135 138.96 940.451 194.444 964.154C233.85 981.037 270.339 988.023 304.746 988.023C387.806 988.023 458.702 947.521 527.933 908.016C581.917 877.161 632.819 848.053 689.137 836.659C719.295 830.505 748.12 830.172 777.112 835.578C809.686 841.566 841.76 854.623 875.167 875.415C904.742 893.795 941.565 916.666 958.143 1010.39C961.559 1029.94 964.558 1046.82 972.472 1060.38C981.22 1075.43 995.133 1084.25 1016.04 1088.07C1077.94 1099.38 1114.77 1117.26 1131.84 1144.38C1135.93 1150.78 1138.92 1157.77 1140.92 1165.17H1143.51C1141.42 1157.27 1138.34 1149.95 1133.93 1143.05C1116.43 1115.35 1079.11 1097.05 1016.46 1085.66Z" fill="white"/>
<path d="M968.224 1113.19C915.822 1105.37 910.907 1089.65 900.243 1055.39C890.912 1025.53 876.833 980.288 821.765 914.67C747.703 826.346 669.142 881.569 578.168 945.525C485.945 1010.39 381.391 1083.83 253.761 1030.94C204.858 1010.64 155.539 1000.66 107.053 1001.08C70.9797 1001.41 35.2399 1007.57 0.833008 1019.38V1022.04C35.2399 1010.15 70.8963 1003.99 107.053 1003.66C155.206 1003.16 204.192 1013.22 252.761 1033.35C310.245 1057.22 368.311 1057.63 430.127 1034.76C484.195 1014.72 532.681 980.621 579.585 947.687C624.572 916.083 667.06 886.227 706.798 875.581C750.702 863.771 786.609 876.745 819.849 916.416C874.584 981.702 888.58 1026.61 897.827 1056.3C908.491 1090.57 913.906 1107.78 967.89 1115.85C999.465 1120.59 1019.21 1132.23 1026.62 1150.45C1028.46 1155.02 1029.54 1160.01 1029.96 1165.42H1032.46C1032.12 1159.68 1030.96 1154.36 1028.96 1149.53C1021.13 1130.24 1000.71 1118.1 968.224 1113.19Z" fill="white"/>
<path d="M708.798 1000.33C685.638 984.946 654.563 985.445 616.491 1002.08C586.249 1015.22 551.509 1038.51 513.187 1071.11C474.031 1104.54 439.041 1141.13 417.214 1165.17H420.547C442.374 1141.13 476.531 1105.54 514.77 1072.94C552.926 1040.42 587.416 1017.3 617.407 1004.24C654.647 988.023 684.888 987.357 707.298 1002.33C759.367 1037.01 787.025 1095.56 811.435 1147.2C814.351 1153.28 817.1 1159.26 819.933 1165.09H822.682C819.683 1158.93 816.684 1152.61 813.685 1146.12C789.275 1094.23 761.449 1035.34 708.798 1000.33Z" fill="white"/>
<path d="M103.22 663.755C140.876 689.038 165.453 725.299 187.03 757.318C211.523 793.579 232.767 824.933 265.924 830.006C269.006 830.505 272.172 830.671 275.338 830.671C300.914 830.671 331.322 815.95 369.894 784.929C398.803 761.642 422.879 740.518 444.123 721.806C488.944 682.301 521.351 653.775 557.174 644.544C593.747 635.062 633.902 645.043 695.718 678.891C746.204 706.586 806.436 725.631 860.838 731.12C886.164 733.698 909.157 733.199 927.402 729.54C946.646 725.714 960.143 718.812 967.391 708.915C977.304 695.358 979.72 670.159 934.65 626.995C880.749 575.349 819.433 569.111 754.535 562.541C711.547 558.216 667.06 553.642 622.156 535.595C571.337 515.219 527.266 479.79 487.361 427.478C457.869 388.805 423.462 370.509 387.723 374.584C363.396 377.328 339.486 390.136 316.66 412.508C293.749 435.129 273.089 466.317 255.427 505.239C242.264 534.098 227.768 548.902 210.856 550.399C174.284 553.642 131.962 492.265 91.1406 432.884C70.7297 403.193 49.6524 372.588 29.5748 350.632C19.1611 339.071 9.66382 330.672 0.833008 325.099V328.177C28.9083 346.64 59.3996 390.884 89.1411 434.131C109.635 463.905 130.879 494.76 151.29 517.215C173.117 541.167 191.779 552.894 208.19 552.894C209.19 552.894 210.19 552.81 211.19 552.727C229.018 551.147 244.264 535.928 257.76 506.154C275.338 467.481 295.749 436.543 318.492 414.171C340.903 392.132 364.313 379.574 388.056 376.912C422.796 373.004 456.536 390.968 485.445 428.892C525.6 481.62 570.087 517.215 621.239 537.757C666.476 555.971 711.13 560.462 754.285 564.87C818.766 571.44 879.666 577.594 932.984 628.659C976.804 670.658 974.805 694.61 965.474 707.335C951.812 725.881 912.823 733.782 861.171 728.542C807.103 723.053 747.203 704.091 696.968 676.563C634.569 642.381 593.914 632.401 556.591 642.048C520.185 651.446 487.611 680.139 442.54 719.893C421.296 738.605 397.303 759.73 368.395 782.933C325.574 817.364 293.166 831.503 266.341 827.428C234.266 822.604 213.356 791.666 189.113 755.821C167.369 723.635 142.709 687.208 104.637 661.593C73.0624 640.385 42.9876 629.74 14.9123 629.74C10.1637 629.74 5.49834 630.072 0.833008 630.655V633.15C32.4073 629.074 66.7309 639.221 103.22 663.755Z" fill="white"/>
<path d="M47.5697 908.598C86.142 909.181 129.296 916.915 167.369 923.652C221.937 933.382 264.924 941.033 270.256 923.402C278.254 896.955 252.261 875.082 209.107 838.905C178.199 812.956 139.627 780.688 98.3885 734.281C67.3973 699.517 36.4895 683.715 6.66468 687.541C4.83187 687.79 2.91575 688.123 0.833008 688.539V691.117C2.83244 690.701 4.91518 690.285 6.99792 690.036C35.9896 686.376 66.0644 701.845 96.5557 736.027C137.961 782.601 176.533 814.952 207.524 840.984C249.845 876.496 275.421 897.953 267.923 922.82C263.258 938.289 219.021 930.388 167.869 921.323C112.634 911.426 47.7363 899.866 0.833008 909.929V912.507C14.1625 909.596 29.6581 908.349 47.5697 908.598Z" fill="white"/>
<path d="M157.455 895.375C179.116 895.375 191.279 891.466 193.611 883.565C198.777 866.35 155.706 835.328 129.463 818.362C92.3903 794.327 48.2362 771.706 24.493 764.47C16.5786 762.058 8.58085 760.395 0.749756 759.397V761.892C8.33093 762.89 16.0787 764.553 23.7432 766.882C47.3198 774.034 91.2239 796.489 128.047 820.442C170.951 848.302 194.528 871.589 191.112 882.817C187.78 893.795 158.122 895.791 107.553 888.472C66.6476 882.65 23.9098 872.421 0.833065 865.934V868.512C24.1597 875.082 66.6476 885.145 107.303 891.05C127.547 893.961 144.292 895.375 157.455 895.375Z" fill="white"/>
<path d="M50.1523 850.298C60.1495 850.298 65.7312 848.386 66.8142 844.56C69.1469 836.909 52.485 824.184 38.0724 814.869C25.6593 806.802 11.4967 799.151 0.749756 794.493V797.238C11.2468 801.895 24.8262 809.297 36.7395 817.032C55.2342 829.008 65.8145 839.32 64.3983 843.895C62.1489 851.296 28.7418 847.138 0.749756 840.901V843.396C9.16402 845.225 18.578 847.055 27.7421 848.386C36.9061 849.633 44.3207 850.298 50.1523 850.298Z" fill="white"/>
<path fill-rule="evenodd" clip-rule="evenodd" d="M284.585 784.68C282.169 784.68 279.837 784.43 277.587 783.848C257.176 778.858 240.931 764.387 230.601 742.181C220.187 719.56 216.688 690.368 220.604 657.684C224.186 628.243 234.6 599.051 250.928 573.269C308.995 481.37 357.231 430.971 394.304 423.486C406.217 421.074 417.131 423.153 426.545 429.723C461.851 454.206 484.88 478.04 505.191 499.059L505.939 499.833L506.12 500.021C537.525 532.534 562.361 558.245 616.741 573.103C651.147 582.501 667.393 591.15 666.31 599.633C665.477 606.204 653.813 611.443 631.57 615.269C609.992 618.928 578.835 621.174 541.512 621.673C513.353 622.088 484.112 632.983 452.038 655.189C424.046 674.65 397.553 700.016 374.143 722.471C339.57 755.654 309.328 784.68 284.585 784.68ZM253.094 574.6C237.016 600.049 226.685 628.908 223.186 658.017C219.354 690.202 222.77 718.978 233.017 741.183C242.931 762.724 258.593 776.696 278.254 781.519C280.337 782.018 282.503 782.268 284.669 782.268C308.328 782.268 338.235 753.577 372.39 720.811L372.394 720.808C395.804 698.269 422.379 672.82 450.621 653.276C483.112 630.821 512.854 619.677 541.512 619.261C578.751 618.762 609.743 616.516 631.153 612.857C658.729 608.116 663.477 602.378 663.894 599.384C665.06 589.903 630.903 579.507 616.157 575.515C561.006 560.379 535.93 534.431 504.273 501.58L503.93 501.225C483.603 480.187 460.586 456.365 425.212 431.803C418.714 427.312 411.549 425.066 403.718 425.066C400.885 425.066 397.886 425.399 394.887 425.981C358.564 433.3 310.828 483.283 253.094 574.6Z" fill="white"/>
<path fill-rule="evenodd" clip-rule="evenodd" d="M871.918 692.863C832.846 687.208 788.275 677.81 761.949 671.406C717.962 660.761 699.134 651.363 697.051 638.888C695.135 627.661 707.298 614.104 735.207 596.224C750.452 586.493 770.28 584.414 794.357 590.236C813.434 594.81 835.178 604.291 859.005 618.429C898.66 641.965 931.068 670.741 932.65 672.155C944.314 680.388 948.979 686.543 946.896 691.117C944.897 695.358 936.899 697.521 922.57 697.521C910.323 697.521 893.495 695.941 871.918 692.863ZM769.28 589.487C756.617 589.487 745.704 592.481 736.54 598.303C709.964 615.352 697.884 628.492 699.467 638.306C701.8 652.361 732.624 661.676 762.449 668.911C834.762 686.46 938.315 703.592 944.48 690.036C945.314 688.206 944.73 683.715 931.068 674.068L930.984 673.985C930.965 673.97 930.839 673.86 930.61 673.66C926.862 670.378 895.597 643.005 857.672 620.508C834.095 606.536 812.601 597.138 793.773 592.647C785.026 590.568 776.862 589.487 769.28 589.487Z" fill="white"/>
<path fill-rule="evenodd" clip-rule="evenodd" d="M840.843 662.258C826.014 660.096 809.019 656.52 799.022 654.108C784.609 650.615 774.862 647.039 773.779 641.051C772.946 636.393 777.528 631.154 788.608 624.084C799.272 617.182 815.434 620.009 836.428 632.484C851.34 641.3 863.587 652.112 864.503 652.943C867.836 655.272 871.418 658.349 870.168 661.094C869.502 662.591 867.586 664.005 860.255 664.005C855.922 664.005 849.758 663.506 840.843 662.258ZM802.021 623.003C797.606 623.003 793.524 624.001 790.025 626.247C780.361 632.401 775.695 637.308 776.195 640.635C777.028 645.542 788.442 648.951 799.522 651.613C836.761 660.678 866.253 663.506 867.836 660.096C867.836 660.096 868.336 658.848 863.004 655.023L862.92 654.939C862.906 654.927 862.846 654.875 862.743 654.786C859.981 652.379 826.278 623.003 802.021 623.003Z" fill="white"/>
<path d="M1035.87 205.173C1015.63 212.575 1003.63 231.869 986.885 258.649C978.804 271.623 969.557 286.344 957.977 301.979C920.321 352.461 882.415 333.915 819.599 303.227C787.192 287.342 746.787 267.631 696.884 253.326C624.322 232.535 575.919 233.616 548.927 256.653C524.184 277.777 516.353 316.783 524.184 379.407C531.015 433.715 571.837 475.548 645.482 503.825C714.879 530.438 797.023 538.007 839.76 540.252C914.073 543.995 979.304 555.472 1033.79 574.184C1077.28 589.154 1114.02 608.782 1142.92 632.567C1152.42 640.385 1160.5 648.12 1167.25 655.605V651.945C1160.84 645.126 1153.42 637.973 1144.76 630.821C1115.6 606.786 1078.61 586.992 1034.79 571.939C980.054 553.143 914.489 541.666 839.927 537.84C797.273 535.678 715.463 528.11 646.399 501.58C573.67 473.719 533.348 432.551 526.683 379.241C518.935 317.531 526.516 279.274 550.593 258.732C576.919 236.277 624.572 235.279 696.218 255.905C745.954 270.209 786.192 289.837 818.516 305.638C850.424 321.274 875.667 333.582 898.16 335.745C922.57 338.073 941.648 328.177 959.976 303.642C971.639 288.007 980.887 273.203 989.051 260.146C1005.46 233.782 1017.38 214.737 1036.79 207.668C1057.28 200.183 1085.02 206.503 1129.68 228.792C1143.26 235.612 1155.75 243.097 1167.25 250.998V247.837C1156.09 240.186 1143.92 233.034 1130.76 226.463C1085.36 203.842 1057.03 197.438 1035.87 205.173Z" fill="white"/>
<path d="M1084.94 283.017C1064.45 283.599 1047.12 293.33 1033.46 311.959C1021.04 328.842 1012.29 344.228 1004.46 357.701C979.304 401.363 967.807 421.324 890.746 391.134C868.252 382.318 841.76 369.511 813.684 355.954C736.373 318.529 648.732 276.114 602.328 296.74C588.332 302.894 578.751 314.704 573.836 331.67C567.171 354.624 569.754 375.415 581.667 393.463C598.996 419.66 635.485 440.452 693.136 457.085C737.956 470.059 795.69 480.455 874.667 489.936C952.228 499.251 1032.54 524.035 1100.69 559.63C1126.1 572.937 1148.67 587.242 1167 601.463V598.136C1148.92 584.331 1126.93 570.525 1101.77 557.385C1033.37 521.623 952.728 496.756 874.834 487.441C795.94 477.96 738.373 467.564 693.719 454.59C636.652 438.123 600.662 417.581 583.667 391.966C572.17 374.584 569.671 354.541 576.086 332.252C580.918 315.785 589.748 304.89 603.161 298.985C648.565 278.859 735.623 321.024 812.435 358.2C840.51 371.839 867.086 384.647 889.663 393.463C927.735 408.349 951.145 411.676 967.974 404.441C984.219 397.455 993.55 381.32 1006.38 358.948C1014.13 345.475 1022.87 330.256 1035.2 313.456C1048.37 295.492 1065.03 286.094 1084.77 285.512C1112.6 284.763 1142.84 301.73 1166.92 319.777V316.616C1129.09 288.34 1101.77 282.518 1084.94 283.017Z" fill="white"/>
<path d="M1081.19 347.721C1066.53 350.216 1055.7 361.693 1048.95 381.819C1028.79 441.783 981.637 437.707 950.396 435.046C933.4 433.549 921.071 432.551 919.571 442.282C917.655 454.59 924.403 464.071 941.065 471.972C955.894 479.041 977.221 484.53 1001.88 490.768C1053.53 503.908 1119.68 520.791 1167.08 564.121V560.711C1119.43 518.13 1053.78 501.413 1002.46 488.356C953.478 475.881 918.155 466.899 921.987 442.614C923.07 435.545 932.901 436.044 950.146 437.541C966.141 438.872 985.969 440.618 1004.71 434.298C1026.87 426.813 1042.12 409.93 1051.28 382.651C1057.7 363.523 1067.95 352.544 1081.61 350.216C1107.35 345.725 1141.26 371.59 1167.17 396.373V392.88C1165.83 391.55 1164.42 390.302 1163 388.972C1129.34 358.034 1101.85 344.145 1081.19 347.721Z" fill="white"/>
<path d="M1115.93 411.26C1103.1 406.603 1092.27 407.518 1083.94 414.088C1077.11 419.411 1074.19 426.979 1075.19 436.543C1078.78 469.644 1129.34 518.379 1167.17 541.084V538.09C1150.42 527.86 1131.76 512.89 1115.77 496.673C1092.94 473.469 1079.36 452.012 1077.61 436.127C1076.69 427.561 1079.28 420.741 1085.44 415.918C1107.85 398.369 1144.76 429.141 1167.17 451.929V448.353C1162 443.113 1156.09 437.624 1149.84 432.385C1137.43 422.072 1126.01 414.92 1115.93 411.26Z" fill="white"/>
<path fill-rule="evenodd" clip-rule="evenodd" d="M879.608 436.955C879.895 437.16 880.055 437.274 880.082 437.292C889.996 444.693 893.495 450.765 890.496 455.339C887.164 460.246 876.417 462.159 862.254 462.159C842.843 462.159 816.85 458.582 794.023 454.008C738.456 442.947 685.471 424.151 652.314 403.775C614.991 380.821 602.328 355.954 615.741 331.836C619.323 325.349 625.322 321.191 633.486 319.361C659.812 313.539 709.381 331.586 780.694 373.17C830.809 402.275 874.589 433.389 879.608 436.955ZM857.505 459.497C880.582 460.079 886.747 456.17 888.33 453.842C891.079 449.85 884.581 443.695 878.583 439.288C876.417 437.707 713.13 320.775 644.066 320.775C640.401 320.775 637.068 321.107 633.986 321.773C626.571 323.436 621.156 327.179 617.907 333C611.242 344.976 611.326 357.119 618.24 369.178C624.489 380.156 636.402 391.051 653.564 401.613C686.471 421.823 739.122 440.535 794.44 451.513C818.183 456.254 840.594 459.081 857.505 459.497Z" fill="white"/>
<path fill-rule="evenodd" clip-rule="evenodd" d="M792.882 415.902C793.485 416.274 793.82 416.481 793.857 416.5C795.107 417.415 799.022 420.326 797.106 423.07C796.023 424.733 792.691 425.316 788.192 425.316C775.862 425.316 754.951 420.492 749.619 419.244C721.877 412.591 696.135 403.027 680.806 393.629C665.394 384.148 660.062 374.916 664.894 366.184C666.06 364.105 668.059 362.691 670.725 362.026C681.556 359.281 705.632 367.598 742.205 386.809C766.26 399.444 788.08 412.933 792.882 415.902ZM750.203 416.749C778.528 423.486 793.69 423.652 795.107 421.573C795.273 421.49 795.023 420.492 792.357 418.496C790.025 416.999 704.882 363.938 675.474 363.938C673.891 363.938 672.558 364.105 671.309 364.437C669.226 364.936 667.893 365.934 667.06 367.348C662.978 374.667 667.976 382.734 682.055 391.383C697.134 400.698 722.627 410.179 750.203 416.749Z" fill="white"/>
<path fill-rule="evenodd" clip-rule="evenodd" d="M302.164 722.388C293.833 725.881 287.002 727.295 281.42 727.295C270.09 727.295 263.925 721.473 260.426 715.319C238.182 675.981 288.418 549.317 356.732 499.916C377.142 485.196 395.471 479.208 411.133 482.202C424.046 484.697 435.126 493.097 444.123 507.235C452.954 521.041 457.203 537.009 456.62 553.476C456.037 569.86 450.621 585.578 441.041 598.885L438.458 602.461L438.308 602.67C406.53 646.767 373.697 692.329 302.164 722.388ZM358.231 502.079C327.323 524.451 296.915 565.784 276.921 612.607C258.176 656.436 252.595 696.356 262.592 714.154C269.34 726.047 282.253 728.043 301.164 720.059C372.144 690.202 404.801 644.876 436.376 600.964L438.958 597.388C448.289 584.497 453.537 569.277 454.12 553.393C454.704 537.425 450.538 521.955 442.041 508.649C433.46 495.176 422.879 487.109 410.716 484.78C408.217 484.281 405.634 484.031 403.052 484.031C389.806 484.031 374.81 490.103 358.231 502.079Z" fill="white"/>
<path fill-rule="evenodd" clip-rule="evenodd" d="M325.657 665.335C320.492 667.498 316.243 668.412 312.827 668.412C306.246 668.412 302.664 665.169 300.748 661.759C294.999 651.613 298.498 630.156 309.828 605.788C321.658 580.505 339.403 557.551 357.398 544.577C369.311 536.011 379.975 532.518 389.222 534.264C396.803 535.678 403.385 540.585 408.633 548.902C419.047 565.369 418.381 586.327 406.801 602.378C388.389 627.91 368.312 647.371 325.657 665.335ZM358.898 546.656C341.319 559.381 323.824 581.919 312.161 606.869C301.247 630.072 297.665 651.197 302.997 660.595C306.496 666.832 313.827 667.664 324.741 663.09C366.895 645.375 386.64 626.164 404.801 600.964C415.798 585.744 416.465 565.868 406.551 550.315C401.635 542.664 395.72 538.09 388.806 536.759C387.389 536.51 385.973 536.343 384.474 536.343C376.892 536.343 368.395 539.836 358.898 546.656Z" fill="white"/>
<path d="M1130.59 671.323C1109.35 658.765 1088.19 656.104 1071.11 663.838C1045.7 675.232 1034.04 707.168 1044.04 738.106C1046.62 746.09 1045.04 752.494 1039.37 757.484C1021.46 773.12 963.558 774.45 880.415 761.06C808.603 749.5 731.208 728.625 692.136 710.162C659.728 694.859 633.569 692.364 614.325 702.594C597.246 711.659 585.999 731.12 581.751 758.732C575.419 800.066 488.361 839.487 418.381 871.09C368.728 893.545 329.489 911.26 324.241 925.814C323.324 928.309 323.408 930.638 324.491 932.8C329.156 942.447 340.57 944.111 361.647 938.206C381.058 932.717 408.55 920.99 443.29 906.103C497.192 882.983 571.087 851.296 665.893 821.107C743.621 796.406 811.185 799.234 866.669 829.507C896.744 845.974 922.737 870.258 943.897 901.696C961.976 928.642 976.388 960.827 985.469 994.843C992.134 1019.79 1006.71 1040.58 1028.87 1056.64C1046.78 1069.61 1069.78 1079.59 1097.1 1086.33C1118.43 1091.57 1142.67 1094.73 1167.42 1095.64V1093.15C1142.84 1092.23 1118.85 1089.07 1097.69 1083.83C1070.69 1077.26 1048.03 1067.36 1030.37 1054.56C1008.71 1038.84 994.466 1018.55 987.885 994.094C978.721 959.746 964.225 927.311 945.98 900.199C924.57 868.346 898.327 843.811 867.836 827.178C811.768 796.489 743.538 793.662 665.144 818.529C570.171 848.718 496.275 880.405 442.291 903.608C373.394 933.133 335.404 949.433 326.74 931.552C325.99 929.972 325.907 928.309 326.574 926.479C331.489 912.923 372.227 894.46 419.464 873.169C454.62 857.284 494.526 839.237 525.933 820.109C562.256 797.986 581.334 777.943 584.25 758.898C588.332 732.118 599.162 713.323 615.491 704.59C634.069 694.693 659.479 697.271 691.136 712.241C749.286 739.686 891.246 772.454 977.471 772.454C1007.21 772.454 1030.37 768.545 1041.12 759.148C1047.62 753.492 1049.45 746.09 1046.53 737.108C1036.95 707.418 1048.03 676.729 1072.28 665.834C1103.44 651.862 1137.93 672.987 1167.33 706.087V701.846C1155.17 688.955 1142.92 678.642 1130.59 671.323Z" fill="white"/>
<path d="M1120.51 711.493C1111.85 708.832 1103.69 709.746 1096.27 714.154C1074.53 727.211 1079.28 751.163 1083.44 772.371C1086.36 787.092 1089.11 800.98 1082.36 808.715C1077.69 814.038 1068.61 816.283 1054.7 815.452C1022.96 813.622 992.467 806.885 967.974 801.479C935.4 794.327 911.823 789.088 903.242 798.652C900.66 801.563 899.41 804.806 899.66 808.382C900.326 819.693 915.322 832.917 934.4 849.633C961.809 873.752 995.966 903.858 1007.71 944.277C1019.21 983.698 1034.7 1022.7 1070.53 1040.75C1084.27 1047.65 1100.35 1051.15 1118.93 1051.15C1133.43 1051.15 1149.51 1049.07 1167.17 1044.83V1042.25C1127.18 1051.9 1095.69 1050.65 1071.61 1038.51C1036.7 1020.87 1021.38 982.451 1010.05 943.529C998.049 902.444 963.642 872.088 935.983 847.72C917.405 831.336 902.742 818.446 902.076 808.133C901.909 805.222 902.909 802.644 905.075 800.232C912.656 791.749 936.816 797.072 967.474 803.808C992.05 809.214 1022.71 815.951 1054.62 817.78C1069.36 818.612 1079.03 816.117 1084.27 810.129C1091.77 801.479 1088.94 787.008 1085.94 771.706C1081.69 750.332 1077.36 728.293 1097.6 716.15C1104.35 712.075 1111.85 711.327 1119.85 713.655C1133.93 717.897 1150.17 732.451 1167.25 755.821V751.496C1153.42 733.283 1136.93 716.4 1120.51 711.493Z" fill="white"/>
<path d="M1136.59 793.662C1124.43 797.571 1115.93 810.628 1115.51 826.263C1115.26 836.077 1113.27 842.148 1109.18 845.891C1100.35 853.958 1080.11 852.71 1043.29 850.465L1038.95 850.215C1024.71 849.384 1016.96 851.213 1014.38 855.954C1010.46 863.356 1020.04 875.914 1033.37 893.379C1045.28 908.931 1060.11 928.226 1068.44 948.851C1074.86 964.653 1085.77 975.548 1100.77 981.286C1109.6 984.613 1119.26 985.944 1128.93 985.944C1142.59 985.944 1156.17 983.365 1167.08 980.455V977.793C1147.09 983.199 1122.01 986.609 1101.69 978.958C1087.36 973.552 1076.94 963.073 1070.78 947.936C1062.28 926.978 1047.37 907.517 1035.37 891.882C1023.54 876.496 1013.38 863.189 1016.54 857.201C1018.54 853.459 1025.79 852.045 1038.7 852.793L1043.04 853.043C1081.69 855.372 1101.19 856.536 1110.77 847.803C1115.43 843.562 1117.68 836.909 1117.93 826.346C1118.35 811.792 1126.1 799.65 1137.26 796.074C1146.17 793.246 1156.42 795.824 1167.08 803.226V800.066C1153.42 791 1142.84 791.666 1136.59 793.662Z" fill="white"/>
<path d="M1115.6 880.821C1107.77 889.636 1105.35 900.781 1108.85 912.258C1112.68 924.733 1126.85 931.802 1150.92 933.216C1154.09 933.382 1157.25 933.465 1160.25 933.465C1162.58 933.465 1164.92 933.382 1167.08 933.299V930.804C1147.01 931.552 1116.68 929.556 1111.18 911.426C1107.93 900.781 1110.18 890.468 1117.35 882.401C1127.34 871.173 1145.26 865.435 1167 866.183V863.688C1144.67 863.106 1126.1 869.094 1115.6 880.821Z" fill="white"/>
<path d="M92.3903 624.916C123.881 637.807 153.956 650.199 174.284 650.199C179.782 650.199 184.531 649.284 188.446 647.288C193.945 644.46 197.444 639.387 198.943 632.318C202.526 615.685 184.781 599.633 157.872 575.349C131.213 551.313 94.7229 518.462 62.4821 469.228C40.5717 435.878 19.9943 414.421 0.833065 404.856V407.601C19.2445 417.165 39.1555 438.123 60.3161 470.558C92.8068 520.126 129.38 553.06 156.122 577.178C182.365 600.881 199.776 616.516 196.444 631.736C195.028 638.14 192.029 642.464 187.197 644.959C169.951 654.025 132.712 638.722 93.3067 622.504C67.3141 611.859 40.4051 600.798 17.0784 595.808C11.2468 594.56 5.74833 593.729 0.749756 593.313V595.808C5.58171 596.224 10.9135 596.972 16.5786 598.22C39.7386 603.293 66.5643 614.271 92.3903 624.916Z" fill="white"/>
<path d="M80.5604 580.006C89.2246 580.006 94.7231 577.844 96.9724 573.602C102.471 562.957 85.8923 542.664 47.5699 513.057C30.2415 499.75 12.2466 487.441 0.916504 479.873V482.784C38.8224 507.983 103.471 555.638 94.8064 572.438C92.9736 576.014 87.975 577.594 80.977 577.594C62.5656 577.594 29.9082 567.115 0.916504 555.971V558.632C7.16472 561.044 13.7462 563.456 20.4109 565.784C47.4032 575.265 67.5641 580.006 80.5604 580.006Z" fill="white"/>
<path fill-rule="evenodd" clip-rule="evenodd" d="M438.208 775.365C442.707 767.797 447.456 760.977 452.454 754.989C468.283 735.861 492.276 725.881 516.353 728.209C530.515 729.623 537.68 734.613 537.763 743.179C537.93 771.539 451.538 830.754 412.632 834.913C406.967 835.578 402.635 835.827 399.386 835.827C392.388 835.827 390.055 834.58 389.222 832.75C387.556 828.925 393.554 823.436 403.552 814.287C414.215 804.557 428.794 791.25 438.208 775.365ZM488.277 796.24C517.352 775.615 535.431 755.239 535.347 743.263C535.347 736.193 528.849 731.952 516.269 730.788C514.02 730.538 511.771 730.455 509.521 730.455C488.527 730.455 468.366 739.936 454.454 756.569C449.538 762.391 444.873 769.211 440.458 776.613C430.963 792.685 416.313 806.062 405.591 815.852L405.301 816.117L404.923 816.463C397.876 822.925 390.656 829.545 391.638 831.669C392.222 833 396.304 834.164 412.466 832.418C430.294 830.505 460.035 816.283 488.277 796.24Z" fill="white"/>
<path d="M82.2264 329.923C100.971 364.354 121.049 399.783 140.626 425.648C162.204 454.008 180.948 467.814 198.027 467.814C198.193 467.814 198.36 467.814 198.527 467.814C215.522 467.564 230.517 453.925 244.347 426.314C273.422 368.346 307.829 332.917 343.902 324.018C368.561 317.947 393.888 323.935 419.13 341.982C438.541 355.871 452.371 360.445 461.202 356.038C474.281 349.55 475.031 325.349 475.864 297.405C476.781 266.716 477.78 231.869 496.192 215.901C504.773 208.499 516.269 205.755 531.348 207.418C570.837 211.909 608.41 205.921 639.984 190.286C669.975 175.399 693.219 152.694 707.131 124.584C720.378 97.8874 724.21 67.781 718.378 37.6746C715.962 25.1164 711.88 12.8077 706.298 0.748505H703.466C722.96 41.833 724.043 85.0797 704.965 123.503C691.303 151.114 668.476 173.403 638.984 188.04C607.826 203.509 570.67 209.331 531.682 204.923C516.103 203.177 503.606 206.171 494.609 213.988C475.364 230.622 474.365 266.051 473.365 297.239C472.615 323.27 471.865 347.887 460.119 353.709C452.121 357.701 439.208 353.127 420.547 339.82C394.637 321.357 368.645 315.203 343.235 321.44C306.412 330.588 271.422 366.433 242.097 425.066C228.685 451.763 214.439 464.903 198.527 465.152C198.36 465.152 198.193 465.152 198.027 465.152C161.787 465.152 122.048 397.704 84.3925 328.509C61.3157 286.344 33.3237 257.235 0.833008 241.766V244.511C32.324 259.897 59.6496 288.506 82.2264 329.923Z" fill="white"/>
<path d="M113.551 223.137C127.964 223.137 140.627 221.058 151.04 216.816C174.784 207.169 186.614 187.458 186.197 158.017C185.78 129.158 193.528 107.701 209.857 92.4816C250.095 54.7238 336.737 61.2108 428.544 68.1969C442.041 69.1949 456.037 70.276 469.783 71.1909C483.196 72.1057 495.525 72.5215 506.855 72.5215C558.591 72.5215 587.916 63.29 594.331 44.9101C598.829 31.9361 591.331 16.2175 579.335 0.914825H576.086C588.416 16.1344 596.247 31.6866 591.998 44.1616C584.667 65.286 543.678 73.6027 470.033 68.779C456.287 67.8642 442.291 66.783 428.794 65.785C336.487 58.799 249.262 52.2288 208.191 90.7351C191.362 106.537 183.364 128.576 183.781 158.183C184.198 186.46 172.867 205.505 150.207 214.654C121.049 226.463 73.6457 221.058 19.9944 199.85C13.5796 197.355 7.24803 194.611 0.916504 191.783V194.527C6.91479 197.272 12.9964 199.85 19.078 202.179C54.2346 215.984 86.892 223.137 113.551 223.137Z" fill="white"/>
<path d="M65.8145 143.962C95.806 142.132 121.215 126.414 141.46 97.2221L144.792 92.3984C169.368 56.9693 181.698 39.1716 199.943 31.7697C218.188 24.3679 242.931 27.0292 292.25 32.4351C298.248 33.1004 304.663 33.7658 311.411 34.5143C369.894 40.7518 412.216 42.9141 440.791 40.9181C468.366 39.0053 484.029 33.4331 490.027 23.3699C493.692 17.2155 493.526 9.73052 490.527 0.914825H487.944C490.943 9.39785 491.276 16.467 487.861 22.1224C482.362 31.1876 466.95 36.5934 440.624 38.4231C412.132 40.4191 369.978 38.3399 311.661 32.0192C304.913 31.2707 298.498 30.6054 292.5 29.9401C242.764 24.4511 217.854 21.7066 198.943 29.4411C180.032 37.1756 167.535 55.1396 142.709 90.9846L139.377 95.8083C119.549 124.335 94.8062 139.72 65.6479 141.467C50.6522 142.382 28.9084 139.804 0.749756 126.663V129.408C25.4927 140.802 45.3204 144.128 60.0662 144.128C62.1489 144.128 64.065 144.045 65.8145 143.962Z" fill="white"/>
<path d="M99.9714 85.2461C111.885 79.6739 120.049 70.1929 124.131 57.0525C130.213 37.9241 131.546 18.6294 130.546 0.831665H128.047C129.046 18.3799 127.713 37.4251 121.715 56.304C117.8 68.779 110.052 77.761 98.805 83.0006C72.0627 95.4756 30.4912 85.2461 0.833008 75.0165V77.6779C20.744 84.4976 45.9035 91.2341 68.5637 91.2341C79.9771 91.2341 90.8073 89.4876 99.9714 85.2461Z" fill="white"/>
<path d="M613.575 62.2088C597.08 94.7271 524.017 90.3193 523.184 90.2361C482.279 90.2361 444.29 87.3252 410.799 84.6639C360.98 80.7551 317.909 77.4284 286.085 85.6619C269.256 89.9866 256.177 97.3884 246.18 108.2C235.349 119.844 228.018 135.562 223.686 156.104C209.274 224.8 171.534 233.034 141.126 239.604C122.798 243.596 106.969 247.006 101.721 263.306C96.9723 278.193 102.471 307.801 115.884 338.739C130.213 371.922 149.707 397.621 168.035 407.435C173.95 410.595 179.865 412.175 185.447 412.175C196.111 412.175 206.191 406.52 215.022 395.459C228.435 378.659 239.348 360.362 249.929 342.648C269.673 309.547 286.668 281.021 313.077 274.617C329.323 270.708 348.234 275.532 370.728 289.587C400.552 308.133 421.213 313.955 433.959 307.385C449.788 299.235 451.371 274.035 453.037 247.255C455.287 211.327 457.619 174.151 494.609 175.815C503.106 176.148 511.271 176.397 519.185 176.397C599.162 176.397 651.064 157.518 673.474 120.093C691.136 90.7351 686.637 55.306 679.806 30.8549C676.557 19.1284 672.475 8.81569 668.892 0.831665H666.143C669.809 8.81569 674.058 19.5442 677.39 31.6034C689.47 75.0997 680.722 103.044 671.308 118.846C647.149 159.098 587.666 177.478 494.692 173.403C476.947 172.654 465.117 180.14 458.536 196.357C452.787 210.412 451.621 229.125 450.538 247.255C448.955 273.286 447.372 297.821 432.793 305.306C420.88 311.46 401.052 305.638 371.977 287.591C348.817 273.203 329.323 268.213 312.411 272.372C285.002 279.025 267.674 307.967 247.679 341.566C237.182 359.198 226.269 377.411 212.939 394.045C199.943 410.262 185.197 414.005 169.035 405.355C151.207 395.791 132.046 370.592 117.966 337.907C105.053 307.967 99.3883 278.36 103.887 264.221C108.719 249.251 123.132 246.091 141.46 242.182C156.789 238.855 174.117 235.113 189.613 223.303C207.524 209.664 219.437 187.874 225.936 156.686C234.017 118.014 252.678 96.8894 286.502 88.1569C300.664 84.4976 317.243 83.1669 335.654 83.1669C357.981 83.1669 383.224 85.1629 410.383 87.2421C443.957 89.8203 481.946 92.8143 522.851 92.8143C522.851 92.8143 522.851 92.8143 522.934 92.8143C523.101 92.8143 541.929 94.0618 562.506 91.0678C590.498 87.0757 608.326 77.7611 615.658 63.4563C623.572 47.9041 618.49 26.9461 600.495 0.914832H597.496C615.824 26.6134 621.156 47.2388 613.575 62.2088Z" fill="white"/>
<path d="M619.99 92.3984C606.327 109.448 565.006 116.517 500.607 112.857C451.705 110.113 406.384 102.046 405.968 101.963C405.718 101.879 378.059 96.9726 346.901 103.044C328.49 106.537 312.494 113.107 299.248 122.588C282.669 134.398 270.423 150.698 262.925 170.991C248.429 210.329 232.184 237.192 213.189 253.16C196.694 267.049 180.615 270.708 165.62 273.286C143.709 277.029 136.295 291.001 133.962 302.062C129.297 323.686 140.543 352.877 158.038 364.604C162.787 367.764 167.619 369.344 172.284 369.344C176.616 369.344 180.865 368.014 184.864 365.269C201.276 354.125 218.105 332.668 235.933 310.046C269.84 266.883 304.913 222.305 340.153 244.677C345.318 247.921 350.317 251.164 355.065 254.324C380.891 271.207 401.386 284.597 414.299 278.276C421.963 274.534 426.295 264.637 427.878 247.006C431.127 210.579 437.125 183.134 455.87 167.664C469.2 156.603 488.194 152.528 514.02 155.023C586.333 162.092 633.986 149.285 655.73 117.099C673.141 91.3173 670.142 57.801 664.56 34.1816C661.395 20.7917 657.063 8.98203 653.647 0.748505H650.981C654.397 8.89886 658.895 20.9581 662.144 34.7638C667.56 57.8842 670.475 90.6519 653.647 115.685C632.486 147.039 585.583 159.431 514.27 152.528C487.778 149.95 468.2 154.275 454.287 165.752C434.959 181.803 428.711 209.747 425.379 246.839C423.879 263.306 419.964 272.871 413.216 276.114C401.552 281.769 381.641 268.795 356.482 252.328C351.65 249.168 346.651 245.925 341.486 242.681C324.741 232.036 306.663 234.697 286.252 250.831C268.424 264.803 250.929 287.092 234.017 308.632C216.355 331.171 199.61 352.378 183.531 363.356C174.117 369.76 165.286 366.517 159.455 362.608C142.709 351.38 131.962 323.353 136.378 302.644C138.627 292.332 145.542 279.274 166.036 275.781C181.365 273.12 197.777 269.378 214.772 255.073C234.1 238.772 250.595 211.577 265.258 171.823C272.589 151.946 284.502 136.061 300.581 124.584C313.494 115.352 329.239 108.949 347.234 105.456C358.898 103.21 370.061 102.462 379.475 102.462C394.804 102.462 405.301 104.374 405.468 104.374C405.884 104.458 451.371 112.525 500.441 115.269C566.588 119.012 607.493 111.859 621.906 93.8954C636.152 76.2641 639.484 52.3952 631.487 24.9501C628.737 15.5522 625.155 7.23552 621.989 0.831672H619.157C622.406 7.15236 626.238 15.8017 629.071 25.6154C634.486 44.1616 637.235 70.8582 619.99 92.3984Z" fill="white"/>
<path fill-rule="evenodd" clip-rule="evenodd" d="M353.316 125.333C362.23 121.008 372.144 120.093 381.308 122.838C390.305 125.499 397.053 131.071 401.302 139.388C414.299 164.421 402.802 208.416 394.804 232.368C392.721 238.689 390.139 242.016 386.723 242.764C386.223 242.847 385.723 242.931 385.224 242.931C379.674 242.931 373.3 236.435 365.366 228.35L365.229 228.21C357.648 220.475 349.067 211.743 338.737 205.589C321.492 195.276 312.994 183.716 313.494 171.074C314.41 149.035 343.319 130.239 353.316 125.333ZM386.223 240.352C388.639 239.77 390.722 236.943 392.471 231.62C410.883 176.563 404.551 150.948 399.053 140.635C395.054 132.984 388.806 127.828 380.558 125.333C377.309 124.335 373.977 123.836 370.561 123.836C365.063 123.836 359.564 125.083 354.399 127.578C344.735 132.319 316.826 150.366 315.993 171.157C315.493 182.801 323.658 193.696 340.07 203.426C350.551 209.606 359.561 218.805 366.856 226.254L367.062 226.463L367.157 226.56C374.947 234.503 381.66 241.346 386.223 240.352Z" fill="white"/>
<path fill-rule="evenodd" clip-rule="evenodd" d="M357.898 163.922C360.814 162.508 364.063 162.175 367.062 163.09C369.978 164.005 372.227 165.835 373.727 168.662C377.892 176.647 374.31 190.369 371.81 197.854C371.394 199.268 370.561 201.181 368.728 201.597C368.478 201.68 368.311 201.68 368.062 201.68C365.999 201.68 364.017 199.64 361.39 196.934L361.313 196.856C359.064 194.527 356.481 191.866 353.399 190.036C347.817 186.71 345.068 182.884 345.235 178.643C345.547 170.694 356.319 164.79 357.743 164.009C357.839 163.957 357.892 163.927 357.898 163.922ZM368.145 199.102C368.395 199.102 368.895 198.436 369.394 197.022C371.311 191.284 375.309 177.146 371.561 169.744C370.394 167.581 368.728 166.167 366.395 165.502C365.479 165.253 364.479 165.086 363.563 165.086C361.98 165.086 360.48 165.419 358.981 166.167C356.731 167.332 347.984 172.738 347.734 178.809C347.567 181.969 349.9 185.046 354.649 187.874C357.981 189.87 360.814 192.781 363.063 195.11C363.176 195.222 363.291 195.338 363.407 195.454C365.178 197.227 367.285 199.336 368.145 199.102Z" fill="white"/>
<path d="M1019.46 148.869C987.635 159.93 965.558 192.199 953.978 244.76C948.646 269.045 935.316 284.348 914.406 290.253C875.25 301.397 812.601 275.781 768.864 230.622C733.791 194.527 719.711 154.857 730.208 121.84C739.956 91.2341 742.705 57.9673 738.456 23.1204C737.54 15.8017 736.29 8.31669 734.79 0.831665H732.208C733.791 8.48302 735.04 15.968 735.957 23.4531C740.205 57.9673 737.456 90.9014 727.876 121.174C717.045 155.106 731.375 195.609 767.114 232.451C787.942 253.909 814.101 271.956 840.843 283.266C859.838 291.334 878.166 295.409 894.328 295.409C901.826 295.409 908.824 294.494 915.156 292.747C936.649 286.676 950.979 270.292 956.477 245.342C967.89 193.696 989.301 162.092 1020.29 151.281C1064.45 135.895 1121.01 164.837 1167.17 198.353V195.276C1120.68 161.76 1064.11 133.4 1019.46 148.869Z" fill="white"/>
<path d="M1034.37 82.9174C1007.46 88.3232 986.968 106.204 973.556 135.895C954.978 176.979 931.401 205.755 903.409 221.557C873.417 238.44 846.758 235.612 829.68 230.289C809.019 223.802 791.191 210.163 779.444 191.866C767.281 172.987 762.782 150.698 766.865 129.158C775.279 84.4144 778.445 41.2508 776.445 0.831665H773.946C775.945 41.0844 772.78 84.0817 764.449 128.659C760.283 150.865 764.865 173.736 777.362 193.114C789.441 211.909 807.77 225.881 829.013 232.535C837.928 235.362 847.092 236.693 856.256 236.693C872.668 236.693 889.246 232.285 904.659 223.636C933.15 207.585 957.06 178.393 975.888 136.81C988.968 107.867 1008.8 90.5688 1034.87 85.2461C1056.03 81.0046 1081.44 84.8302 1108.35 96.4736C1129.43 105.539 1150.75 119.178 1167.17 134.065V130.738C1133.26 100.965 1078.61 74.0185 1034.37 82.9174Z" fill="white"/>
<path d="M1142.42 79.5907C1114.02 76.9294 1079.69 65.9514 1048.2 49.318C1011.71 30.0232 981.22 58.799 945.98 92.0658C919.154 117.432 888.746 146.124 851.09 156.52C837.844 160.179 827.597 158.267 820.516 151.031C796.439 126.164 812.601 44.7438 823.598 0.831665H821.016C817.683 14.2215 813.851 30.9381 810.852 48.4031C801.604 102.711 804.27 137.808 818.766 152.778C824.015 158.183 830.763 160.845 838.927 160.845C842.926 160.845 847.175 160.179 851.84 158.932C889.996 148.453 920.737 119.511 947.729 93.8954C982.303 61.294 1012.13 33.1004 1047.03 51.5635C1079.19 68.6127 1113.02 79.4244 1142.17 82.0857C1151.25 82.9174 1159.59 82.9174 1167.17 82.0857V79.5907C1159.75 80.4224 1151.42 80.4224 1142.42 79.5907Z" fill="white"/>
<path d="M857.422 110.362C858.755 110.529 860.004 110.612 861.337 110.612C883.498 110.612 908.241 86.3272 921.487 71.1909C939.065 51.2308 956.144 25.2827 968.057 0.748505H965.308C953.561 24.7006 936.816 49.9833 919.654 69.5275C895.994 96.4736 874 110.113 857.755 107.867C851.007 106.953 846.592 103.875 844.259 98.6359C835.511 78.6759 859.171 32.2688 877.749 0.831672H874.834C871.168 7.15236 867.252 13.972 863.503 21.0412C843.093 59.3812 835.845 85.8283 842.01 99.634C844.675 105.705 849.841 109.281 857.422 110.362Z" fill="white"/>
<path d="M890.746 55.4723C891.246 55.5555 891.829 55.5555 892.412 55.5555C897.411 55.5555 905.325 52.5615 916.322 40.0033C924.486 30.7718 932.317 18.2136 936.899 7.23553C937.649 5.40586 938.482 3.16035 939.232 0.748511H936.649C936.066 2.49502 935.4 4.32469 934.65 6.23753C925.236 28.8589 903.742 54.7238 891.162 52.8942C888.83 52.5615 887.33 51.5635 886.497 49.7338C882.248 40.0865 899.493 11.5602 906.908 0.665344H903.909C898.577 8.73253 879.166 39.0885 884.248 50.7318C885.331 53.4763 887.58 55.0565 890.746 55.4723Z" fill="white"/>
<path d="M1125.51 53.3932C1108.93 51.314 1090.36 44.328 1070.19 32.6014C1052.62 22.3719 1036.87 10.2295 1025.71 0.831665H1021.88C1033.29 10.5622 1050.03 23.7857 1068.94 34.7638C1089.44 46.6566 1108.35 53.809 1125.26 55.8882C1128.76 56.304 1132.18 56.5535 1135.59 56.5535C1147.34 56.5535 1157.92 53.8922 1167.33 48.5695V45.6586C1155.25 52.7278 1141.34 55.3892 1125.51 53.3932Z" fill="white"/>
<path fill-rule="evenodd" clip-rule="evenodd" d="M631.403 746.839C647.315 737.524 674.891 737.275 713.38 746.173C740.955 752.577 764.448 761.559 766.364 762.308C791.107 766.882 794.19 770.957 794.023 773.951C793.857 778.026 787.192 783.599 736.873 791.084C705.632 795.741 668.392 799.567 641.234 802.311L634.485 802.976C629.57 803.475 625.155 803.725 621.156 803.725C605.91 803.725 596.996 800.066 594.663 792.913C590.415 780.022 609.992 759.397 631.403 746.839ZM736.456 788.672C785.859 781.27 791.357 775.864 791.441 773.868C791.441 772.87 789.691 769.211 765.781 764.803L765.531 764.72C765.519 764.715 765.445 764.687 765.312 764.637C762.829 763.691 739.769 754.905 712.88 748.668C698.301 745.259 680.889 742.265 665.06 742.265C652.647 742.265 641.15 744.177 632.736 749.084C622.156 755.322 612.242 763.389 605.494 771.29C598.412 779.69 595.413 787.092 597.079 792.248C599.662 799.899 612.492 802.81 634.236 800.565L640.984 799.899C642.991 799.69 645.053 799.476 647.163 799.257C673.602 796.513 707.601 792.985 736.456 788.672Z" fill="white"/>
<path fill-rule="evenodd" clip-rule="evenodd" d="M649.731 218.895C649.065 212.242 658.145 204.424 676.64 195.525C688.803 189.704 703.299 191.533 713.38 200.266C721.377 207.169 730.042 216.982 725.71 225.133C722.377 231.453 711.797 234.78 697.718 234.78C688.304 234.78 677.307 233.283 665.81 230.206C655.396 227.461 650.148 223.719 649.731 218.895ZM666.476 227.794C693.052 234.947 718.628 233.2 723.543 223.968C726.293 218.646 722.294 211.161 711.797 202.179C705.965 197.272 698.717 194.694 691.386 194.694C686.721 194.694 682.055 195.692 677.723 197.771C660.811 205.921 651.731 213.323 652.23 218.646C652.564 222.222 657.479 225.382 666.476 227.794Z" fill="white"/>
<path d="M912.406 1139.39C869.002 1133.9 843.509 1097.14 811.352 1050.56C802.354 1037.59 793.024 1024.12 782.527 1010.15C756.201 975.132 726.709 954.091 694.968 947.604C658.895 940.285 619.24 951.596 577.169 981.203C530.932 1013.72 464.034 1066.03 406.634 1114.6C390.555 1128.24 369.561 1146.37 348.984 1165.17H352.649C368.978 1150.36 387.556 1134.06 408.217 1116.52C465.534 1068.03 532.348 1015.72 578.501 983.282C656.896 928.143 724.876 937.707 780.444 1011.73C790.858 1025.61 800.188 1039.09 809.186 1052.06C841.76 1099.13 867.502 1136.23 911.99 1141.88C943.564 1145.87 961.642 1153.69 965.974 1165.17H968.64C964.558 1152.28 945.647 1143.63 912.406 1139.39Z" fill="white"/>
<path fill-rule="evenodd" clip-rule="evenodd" d="M285.752 874.833C282.836 868.845 283.336 860.195 291.5 855.372C303.747 848.136 320.492 851.463 327.073 857.118C329.906 859.53 330.906 862.358 329.823 865.019C327.657 870.674 319.326 876.496 305.163 882.235C303.08 883.066 300.998 883.482 299.081 883.482C292.917 883.482 288.085 879.49 285.752 874.833ZM304.163 879.906C317.493 874.5 325.574 869.011 327.49 864.104C328.323 862.025 326.823 860.112 325.324 859.031C321.825 856.037 314.91 853.791 307.579 853.791C302.497 853.791 297.249 854.873 292.667 857.534C285.835 861.526 285.335 868.512 287.918 873.668C290.501 878.825 296.665 882.983 304.163 879.906Z" fill="white"/>
<path d="M68.7305 57.9673C82.2266 48.7358 77.8112 19.3779 73.3125 0.831665H70.7299C71.8962 5.48901 72.9793 10.8949 73.8957 16.5502C76.0617 30.9381 76.7282 49.4843 67.3975 55.9713C56.4007 63.4563 34.0737 53.6426 0.916504 26.7797V29.9401C26.4925 50.4823 45.9037 60.795 58.9 60.795C62.7322 60.795 65.9813 59.797 68.7305 57.9673Z" fill="white"/>
<path fill-rule="evenodd" clip-rule="evenodd" d="M562.839 608.865C550.593 608.865 537.513 607.617 528.183 604.041C514.853 599.051 514.103 591.4 516.019 585.911C517.935 580.006 521.851 575.681 527.766 573.103C538.346 568.529 555.008 569.61 577.252 576.43C593.664 581.503 607.243 587.907 607.41 587.99C614.408 591.483 614.658 594.81 613.741 596.972C610.992 603.21 593.664 606.869 578.418 608.2C573.67 608.615 568.338 608.865 562.839 608.865ZM528.682 575.432C523.434 577.677 519.935 581.503 518.269 586.743C516.186 593.146 519.768 598.22 529.099 601.796C540.096 605.954 558.924 607.451 578.168 605.788C595.913 604.208 609.576 600.216 611.409 596.057C612.325 593.895 609.076 591.733 606.244 590.319C605.41 589.903 569.254 572.937 543.262 572.937C537.846 572.937 532.848 573.602 528.682 575.432Z" fill="white"/>
</g>
</g>
</svg>
